<mxfile host="app.diagrams.net" agent="Mozilla/5.0 (Macintosh; Intel Mac OS X 10.15; rv:130.0) Gecko/20100101 Firefox/130.0" version="24.7.14">
  <diagram name="Page-1" id="iZUFe--LRhAq24URRLlx">
    <mxGraphModel dx="3044" dy="2472" grid="1" gridSize="10" guides="1" tooltips="1" connect="1" arrows="1" fold="1" page="1" pageScale="1" pageWidth="1169" pageHeight="827" background="#FFCC99" math="0" shadow="0">
      <root>
        <mxCell id="0" />
        <mxCell id="1" parent="0" />
        <mxCell id="VO9SBi8s1unNAO6Z6G-t-1" value="" style="shape=image;verticalLabelPosition=bottom;labelBackgroundColor=default;verticalAlign=top;aspect=fixed;imageAspect=0;image=https://upload.wikimedia.org/wikipedia/commons/thumb/b/ba/Database-postgres.svg/1200px-Database-postgres.svg.png;" vertex="1" parent="1">
          <mxGeometry x="280" y="280" width="189" height="267.14" as="geometry" />
        </mxCell>
        <mxCell id="VO9SBi8s1unNAO6Z6G-t-2" value="" style="ellipse;whiteSpace=wrap;html=1;aspect=fixed;fillColor=#ffe6cc;strokeColor=#d79b00;" vertex="1" parent="1">
          <mxGeometry x="804.55" y="341.79" width="191.29" height="191.29" as="geometry" />
        </mxCell>
        <mxCell id="VO9SBi8s1unNAO6Z6G-t-3" value="&lt;font style=&quot;font-size: 34px;&quot;&gt;Stagging Area&lt;br&gt;&lt;/font&gt;" style="text;html=1;align=center;verticalAlign=middle;whiteSpace=wrap;rounded=0;" vertex="1" parent="1">
          <mxGeometry x="825.14" y="378" width="150.1" height="111.65" as="geometry" />
        </mxCell>
        <mxCell id="VO9SBi8s1unNAO6Z6G-t-4" value="" style="endArrow=none;dashed=1;html=1;strokeWidth=8;rounded=0;fillColor=#dae8fc;strokeColor=#6c8ebf;" edge="1" parent="1">
          <mxGeometry width="50" height="50" relative="1" as="geometry">
            <mxPoint x="830" y="278" as="sourcePoint" />
            <mxPoint x="790" y="588" as="targetPoint" />
            <Array as="points">
              <mxPoint x="740" y="278" />
              <mxPoint x="740" y="588" />
            </Array>
          </mxGeometry>
        </mxCell>
        <mxCell id="VO9SBi8s1unNAO6Z6G-t-8" value="" style="shape=image;verticalLabelPosition=bottom;labelBackgroundColor=default;verticalAlign=top;aspect=fixed;imageAspect=0;image=data:image/png,iVBORw0KGgoAAAANSUhEUgAAAtAAAALQCAYAAAC5V0ecAAAgAElEQVR42uzdB3zcdf3H8fftmZ3uPaGFssqQDaKioIgDEfkjOBgCKgooMkSGDBFFHGwVARFBWSJDpiyRVaGlULrbNG32zu37/76/NFBKR9JckrvfvZ487pGkJJfkc7+7vO97n9/n68paBAAAAKAvsm5qAAAAAPQdARoAAAAgQAMAAAAEaAAAAIAADQAAABCgAQAAAAI0AAAAAAI0AAAAQIAGAAAACNAAAAAAARoAAAAgQAMAAAAEaAAAAAAEaAAAAIAADQAAABCgAQAAAAI0AAAAQIAGAAAACNAAAAAACNAAAAAAARoAAAAgQAMAAAAEaAAAAIAADQAAABCgAQAAABCgAQAAAAI0AAAAQIAGAAAACNAAAAAAARoAAAAgQAMAAAAgQAMAAAAEaAAAAIAADQAAABCgAQAAAAI0AAAAQIAGAAAAQIAGAAAACNAAAAAAARoAAAAgQAMAAAAEaAAAAIAADQAAAIAADQAAABCgAQAAAAI0AAAAQIAGAAAACNAAAAAAARoAAAAAARoAAAAgQAMAAAAEaAAAAIAADQAAABCgAQAAAAI0AAAAAAI0AAAAQIAGAAAACNAAAAAAARoAAAAgQAMAAAAEaAAAAAAEaAAAAIAADQAAABCgAQAAAAI0AAAAQIAGAAAACNAAAAAACNAAAAAAARoAAAAgQAMAAAAEaAAAAIAADQAAABCgAQAAABCgAQAAAAI0AAAAQIAGAAAACNAAAAAAARoAAAAgQAMAAAAgQAMAAAAEaAAAAIAADQAAABCgAQAAAAI0AAAAQIAGAAAAQIAGAAAACNAAAAAAARoAAAAgQAMAAAAEaAAAAIAADQAAAIAADQAAABCgAQAAAAI0AAAAQIAGAAAACNAAAAAAARoAAAAAARoAAAAgQAMAAAAEaAAAAIAADQAAABCgAQAAAAI0AAAAAAI0AAAAQIAGAAAACNAAAAAAARoAAAAgQAMAAAAEaAAAAAAEaAAAAIAADQAAABCgAQAAAAI0AAAAQIAGAAAAHMpLCZwp09qs1MplSi1fLPn91lOlDz5Xcoej1q3ve//jYFCuQOj9T/B43vsal3nref9Qcfne/zr5/OuvwCWX+RzX+2/ti7fn61zme5mPAQBwsGQ2q/Z0Rj7rb17E42alkgCNQpFaukitv7tS8df+o2yse5uuw+UPWKF3/eFhBWJXIPD+/wtHPvS+y/6cYE+ANp9rQrfb814odwVDdhB3RaJ2mHaFQj3fw/oa+/9Z12OCuSsUtj6OyB2J2KHcXVphX4fLCvgAAOSzZ9o6dVtDq5bFEgpZf/P2jIZ08qgKjfIRt5zGlbVQBufINDWo/uQvKlWz0nkHqxW+3SZwR0qsgB2VrPfd0VLr40jPW/P/wuvfN59rwviGIb33YsJ67/teHtQAAAPTncno2rVNOmflug/9v2lBv+6bOUE7hlkIcpAs6cFR6Tmjzvv+7MjwbB+tnR1KWxdZTxK2yqx2m7YRj6cnJJtV7963pgVl/ccmRHvKK3tCeUWVFb6tt+XW29JSuUvKrEt5z4q6+Xy/3/pav90SY3+tP/ih1hgAQHGJZbK6bl2zLq2p3+T/XxJL6JxVdbp12jhVeT0UzCEI0E4KmLEuJd56g0KsfzKRTcR76jLAq3KXltstJK6wFa6j0Z7+cRO8S8t6QrcJ2tWjrM8rk2fUGCuAV1qhvKqnjxwA4Gg31DXpJ6vr1JHObPZznmrt1KLuuPYuCVMwAjTyLkCn0lZojFGIXGfxthapzby3th+p220Hb0/VyJ5QXVltvT9CnpFj7MDtipauD9oVPR+bXnJOsgSAgpHKZnVLXbPOWL71vw1dmYwWxxMEaAI08pEJYZ4xEyhEXqTujDItTfYlueTtDW4kV89JlIHA+33Ypk/b3HZWuPaMHidPtQndY3vCtjnp0nxObz+39T5BGwCGPzzf3dSq81fX9flr3OKxmwCN/AzQXq/CnzxSXQ/eRTHylfWgm00m7Is62jf6n69v9Gjr7mkPKauQp6parmiZPCNGyTtmvB20vRMmW0+YxtufAwAYOg80t9krzw3JdD8CNByVuZjC4Twdd9yotj/8WtmuTopRDHfiSFTeUWPlnbqdvKPHyjNuohW0R8tTOeK91hH6sQFg4NJWYnqwpU1HL1qtRD/j05+nj9cx1Sx4OARTOJwoctTxdmBqu/kaQnQx3Is7O5Rcusi+2MzKtWn5WH8xY/084yfLN3mavJOmyjNqnH3Coz3uz4z0CzBaCQD6Ep4famnX6ctq+x2e4TwEaAcyvbKRz/+f2UJQrb+6hIIUG9N/bcb9mUuvhW/ovS11rCdXHrMybVpBqkbKO36SvJOny2dWsCdOsUM3AOCDnmjrsMNzTSJFMUCAdnKIjh79NftktbYbf2GfzAbY0mml69fZl00+KJjV6pmz5Js+23p/ojyjx9t9127TCgIAxfaQme0Jz19YtGqLo+q2pspHK52jchY90M4PS11P/lOt11ysTHMj9UD/HiB8frlKSnvaQCqr5Z00Tb5Zc+SfMVuusp4RfPaukGwoA8Ch4bm3bWNVIjmg63p01iR9oixKUZ0hS4AukhDd/ey/1PTj70qpJPXAwIO1P2BPBDEnLPomTZd36kz5rWDtm7kDxQHgGI+1duibS9YMODwToAnQKGDd/35MrVf/ROn6tRQDgxOsQ2ErSO9st4D4Z+8sz/gp8k2YbE8KAYBCkau2DQI0ARpOkMko9vyTarn6QqXraqkHBjdM+/xyl5XbOzL6ZliBeodd5Zu1k71RjJltbW8KAwD5loysyxOtHTpp6Roti+fuVdv/7DhVe0V53CNAo2BDdPzl59V47reU7e6iHhjaUO0PyDtuYs/Uj2nbKbDXAXa4Nv8OAPnghfYuHb+kRotjiZxe7ytzpmpuhABNgEZBi7/0rJovP4eVaAx/qI5E5Z+1kwJz95Z/+52scD3N3socAIbaSx3d+tTbK9ScSuf8ugnQBGg4Ae0cyLsk7ZI7UiJ3eaV8M2crsMue8u2wi7yjx9ktH0z6ADCY5nXG9PWlNXrdepvzhzc7QE/TbhE2riJAwxEhmnYO5HWmDoXlm7a93eYR2O0jCuy5nz06DwByaVEsoa8uXm2vQA+GsNutF3ecop3CBGgCNBzDhOiWn52nVM1KioH8DtT+gHyzd1LogE/YJyV6p8yQO1pCYQAMKDwf9vYKLclxz/OGSjxuPb/DFM0hQBOg4aTDIKv4qy/2hOjVK6gH8p/bbbd1eEaNUWD3fRXc6wD75ER39Si5vGywCqBvFnbH9a1la/RM2+C+CkuAJkDDwSE6Mf81NZ71TWXaW6kHCosVmr3jJymwy14KHvBxu92DyR4AtmRlPKmvLa3Rk62dg/69qr0e/dsK0LNCPC4RoOFIiQXz1HLVBUouWkAxULDcldUK7rGfQh/9lHzb7SjPyDEUBcAHwvNn3lmpN7piQ/L9xvq9emr2FM0M+ik+ARpOlVz0llp+dr4Sb82jGCho5iRE0+ZhxuOFDv2sfFNnylM1kokeQBEzbRunL68dkpVnAjQBGkUmtXKZGs/8GicWwjm8Xvkmz1Bgj30U+fSX5J04VfJ4qAtQRIaybYMATYBGEYfo5it+pMS8/1IMOI5vynSFD/tiz26IU2YQpoEiCM9D2baxIROcH501WZMDPm4IAjSKIkQvX6yWq3+i+KsvUAw4jxWaPVUj5N9xrt0v7d95D3kqqmjxABxmWTyh05fV6p8tHcPy/QnQBGgUofTaGjX+4EQlF79NMeBo/tk7KbD3wYp88nPyjJtIQQAHWJdM6aSla/RAc/uw/QyzQwE9vP0kTSRAE6BRfCG6+ac/ZCUaRSP0sU8r/PEj5N91LzZrAQo4PH9+0Sq90D68u+3OjQT14HaTNMbPnHoCNIoO7RwoNu5IVN7J0xU54svy7/YReceMp70DKBD1qZS+t3yt7mgY/r0NCNAEaBQ52jlQrLyTpym0/8cVOfrr8lRWUxAgj3VkMjpzxVrdUtesdB6knL2iId2/3USN8hGgCdAo6hBtNluJvfg0xUDRMTschg45XJEjj5F/zlwKAuRheD5+8Wrd19SuTJ78TAeVRnTPzAmq8jLthwCN4g7Ra1ap5ZqLFXvuCYqBIkzRLrnLK+0V6dDHPyP/9nPkikSpCzDMmlNpXbC6Ttetbcqb8GwcvD5AVxKgCdBApqlBjeecosT81ygGipa7tFyB3fdRyVdOtLcNZ540MDximazOX7VO11rhOZln0eaw8qjunDFBpR7OoSBAA+tDdOu1P1XX4w9aH2QoCIqWae0I7nWAwkceo+DeB1EQYIjD87eWrdHtDa1K5WGs+XRFif48fbxKCNCOCdB0s2NA3JXVKjvjArlCYXU+cJd1SBGiUaSPpom4up97XPH/vazQQZ9U+LPHyDdtph2sAQwe07bx05r6vA3PhnldysVN5SisQCM34aG7S02XnKXYM48RogHz5LK8UsH9PqbSU85iagcwSPK5bWNDx1SX6Y/TxsnvIkY7JfbwWgJy80wsFFblBT9X9EsnSF5e2AAyLU3q+sdfVffVw9T+h1/bJ94CyG14Nm0bv8rz8Gx45GIF2mEI0MhpiC75+rcVPep4TqQCeoN0U4Pafn+tGs85Wd1PP6JMWwtFAQaoI53RRavr8rptY0Mht0teVp8J0MBmD6iSMpWefJbChx5JiAZ6pdP25kNNP/6Omi89W8l3FlATYBuZwHx1bYOuWdtYEOHZcIkeaAI0sLUHCn9A5T+4lHYO4EN/+VP27PT6Ez+v1l9dqnRDHTUB+hmev79irS6rabBbOAoF0zcI0ECfQ3TJCafTzgFsQjaVVMfdf1TTD05U9+P/sE/CBbBlCSs8/3xNo25Y12y/X0j8btafCdBAXw8u2jmAzctklHj7Tbulw8xST6+toSbAFtxa36Ir1jQUXHg2om7iFgEa6Ifedg6zSxvzcIEPM/OjO++/U/Wnftl+az4G8EFXWcHZtG60ptMF+fMHCNAEaGBbQnTJCacpetwpcnl9FATYBLMCbVai7d5oRt4BNjOe7vaGFl1cU29P3ihUYVo4CNDANoXoUESlJ5yu8Oe+QogGNsP0Qnfee4eaLvyu4q++SEFQ9O5tatP3lq8t6PDcE6CJWwRoYFt5PCr/zvkqOfEMuaMl1APYjMSCeWr49rFqv+Vae0MWoBjdWNesk5bWqiGVLvjfhSkcBGhgwCE6+uVvqPT0H9kbrwDYvPbbrlPz5T9SavliioGiYdo2/trYqh+sWFewPc8bYwtvAjQwYC6fX5EjvqzSr3+HEA1sgTmhMPbsv9R49jftVWkzuQNwOtO2cdqyWseEZyPCCjQBGsiV6LEnqfzsS+Qur6QYwBakalaq4bRj1HHnzcrGuikIHMtJbRsf+HtHDzQBGsil0Mc+o/IzL6InGtgKsxrd9vtr1XLlecp0tFMQOOtJYjare5raHNW2sSF6oAnQQE65vF6FDjlcpaedQ4gGthaiu7vU9eh9Vog+V+l1tRQEjvF4a6e+u7zWkeHZDlu0QBOggcEQ+ewxKv/hZbRzAH3Q/cRDavje8Uq+PZ9ioOCZEwb/b/FqrUmkHPs7Vnm93NAEaGBwBA88lHYOoI9SK5ao6YJvK/6//0oOXbWDs5lTYv/V2qFTl9WqMeXsYzjEEjQBGhgstHMA/ZDNKlWzQs0XfEfd/36MeqDgzOvstqdtOD08G2ykQoAGBp3dzvGjK+SpHkkxgK1IN9Sp5fJz1Hn/nRQDBePZ9k59YdEqvRtLOP535QRCAjQwZEIHfMIO0e6yCooBbIWZytH22yvs3uhsKkVBkLey1uV/XTF9dXGNVsSTRfE7l3s83PAEaGCIWA84wb0P6umJJkQDfQrRLVdfqJgVooF89XZ3XN9YUqPlVnjOFsnvHKJ9gwANDPkDz8c+rcpLrpV38nSKAWwtRLc0qeWq89X5l1soBvLOq53ddtvGq52xovq9S2nhIEADwyEwd29VXvhLecaMtz7iTGZgiyG6q1NtN1+j7ofukVJJCoJhZ1aaF3bHddziGnsFutgwgYMADQwPl1u+7XZQxQVXWyF6HPUA+hCiW39zmRKPP2B9wIg7DK+37fC82g7R2SL8/cu99EAToIFhFNhlD1VdeYMVpnekGMBWpFtb1Hz1T5T8yw2EaAybYm3b2BBTOAjQwLDzTdtelRf+Qt5J0yQXL4sBW5Lq7FTL7Tcp8+jdUjxGQTBkzErz20XctrGhMqZwEKCBYWeFZnNCoR2iJ06lHsBWJFpa1faH3yr75H30RGPIrIgn9PUla4q2bWNDYXqgCdBAvvBtP0dVl19HOwfQB501a9Rxxw3S324iRGPQmdBs2jZe7OiiGDItHKxAE6CBPGLaOGjnAPogm1Xn6jWKPfmQ9MhdUncnNcGgMJuj/N/i1ZrXSctQrzJ6oAnQQF6hnQPos3QiqbYly5T9txWin7iXlWjkXEMqrdOW1eo1KzxnKMd7IauUFWgCNJCP7HaOK66Xf8fdKAawBcmumBWil/eE6L/fTIhGzqxJpPTVxav1UEs7xdiA3+1SxMMrpARoIE95J01VxUXX2POizdxoAJvWVd+geFOT9NpztHMgJ5pSaX1zaY3+1cqx9KG/TS4XW3kToIF85pJ3zHh7x0LfzFmUA9iMjBV22leuUTrWLT3/sPT436QE/arYNq3ptM5esVYPt3Qolc1SkI347ADNCjQBGsj3Z/uTp6vqyhsV3P/jFAPYjERHpx2iZYUfPWeF6Lt+R4hGvzWkUjp56Rr9vr6FYmwhQEdYgSZAA4XAM3KMKs69QsGPHGh9wMkbwKZ01TUoacaMmVXD+S9LD94mdbZRGPSJWXk+fVmt/t5Ez/OWA7SZA03UIkADhXJgl1Wo/NwrFdxjP4oBbEI2k1H7qjXKmlVoE6L/+5T0zzutZE0gwtbD8w9WrNNdjW1K0raxlQDtUpgxdgRooJB4qkfaJxaGP30UxQA2obupWbHm1t5ELb1sheg/XCV1tFIcbFJv28aNdc0Uow/8VoCOsgJNgAYK7gAvKVPZd85X6JDD5fJ6KQiwIbPBSu06ZZKp9/9txSLpnhulpjrqgw+gbaP/fPYYO6IWARooxIM8WqLyMy9S8MBDKQawkUR7p2JNG60mvvWqdP8fpbYmCgRbRzqjH6+qo22jvwHatHAwhYMADRTsgV5eqfIfXqbIZ4+hGMAG3uuFzmy0d9zC16RbrpCaGyhSkTMrz99fsVbXruUJVX+ZCRwmRIMADRTuwR4tUelp59DOAWwkFYuru3ET4ah2pXT39VJdDUUqUmbl+ewV63Qro+q2yQgfk6AI0IBDQjTtHMCHddc1KpNKffh/LJ4v3fcHVqKLUCKb1a/XNeqmumb7ffRfGaNUCdCAYw769e0c0aOOpxjAerGWNsVbNjMH2oToP/6MEF1Mx0Mmq8tq6u2+Z2y7EV4CNAEacNKBb9o5TjlbkSOOlsvnpyBANmtvrpLd3Eoj7RxFw6w2X7GmXlfXNirFwvOAlBOgCdCA07hCYZWefq7Cn/ocxQDUM5Ej2dG5+U8wK9H33iI1rqNYDpWywvOf6lv005p6u/8ZA1Pt43wbAjTgxDtAtERl37vQPrmQbb9R7DLJpLobtjJpYclb0k2XSfW1FMxhzHi6X61t1LeX17LynCMV/F0hQANO5QoEFT36ayo54XS5QhEKgqJmt3FktrLy2LRO+stvpTXLKZhDmJXna63w/NOaBrv/GblRSQsHARpwdIj2+lRy3CmKfuWbrESjqJldCRNtHVv/xFWLpXtuIkQ7JDzf3tCi81fVqTmVpiA5VOElZhGgAaeHaH9AJcefqvKzL7Xe58RCFK8+rUIbq5dIN1wiLX/HPgkRhae3beNby2pZec4xs/occhOzCNBAMYRor0+Rw7+o0pPPkruklIKgKCXaO5RJJPv2yd2d0l+vk5YsIEQXGNo2BleYXQgJ0EBR8XgUPeqEnp5oVqJRjMEqFlOyq7vvX9CwVvrbTT1TOlAQzOsLf2lspW1jEJV63AoQoAnQQFHxehX90tdo50Bxykpd9Y39+xoz2u7Wq6VFb1hfz/izfJa2bt+b1zXrW0tp2xj0AO0mQBOggWLj8Sj8yc/RzoGilOzoUrqvbRy9EjHpnhukha8TovOUuVVuqWu2V547MtxGgxqgvR4CNAEaKN4QTTsHijJoJZNK9aeNo1dLo3Tf76V3aefIR0+1dujMFWtVn0pRjEFGDzQBGihuve0c51xh714IFEWAtgJWvLVt277YhOg//YJ2jjzzQHO7jl1cw8rzEKn0uJnCQYAGipxp5zj0CJV95zy5yyupB4pCoq19AF9MO0e+heczlq/VuiQrz0NlhM9LyCJAA5DLrchnjlbpyWeyEo3iCNDtnQMbTdfbzvH2PIo5jF7p6NZJS9doWTxBMYYQuxASoAG8d4+xQvQRR6vqyhvlrqymHnA0s5lKbFvbODYM0aadY/5/pQzj0obak62d+uK7q1h5HgZj/T6KQIAG8B6XW4Hd91HFOZfJM3YC9YCjJc0q9EClrfD291ukN14iRA9xeD59ea1WxJMUYxhUso03ARrAhwX3+5jKz7iAlWg4O0B3dvVtW++t6WiVHrhVev15ijoE3uiK6etLa7SwO04xhsl4VqAJ0AA2H6Krfn6LPKPHUQw4ktmVMJOrkWcmRN/1O+m5h60rZlV0sJiV5yPeWcnK8zAb4fVSBAI0gM3xbz9HFeddKe/k6RQDjpOOJZTN9VbPj94lvfAYIXqQwjNtG/kRrkb4OImQAA1giwJz91H5mT9hJRqOY1af04kcT2+Ix6R/3S39+x8UOIdo28gfVT6vvGyiQoAG0LcQXfWzmwjRcJxER1fur9SE6EfusoL0PdY3IPAN1Esd3Tpq0SpWnvPEGB/tGwRoAH3mm7497RxwnHRsEAPuMw/2XAjRAwrPpyxbo0Ux5jzniwl+AjQBGkC/0M4Bp0l1xwbvyk1w7g3R6LdViaS+uni15nXGKEYeGeVjAgcBGsA2hWjTzuGdOIVioOClk0llBnMjDhOiTSsH7Rz98m4sri+/u4qV5zw0mhVoAjSAbWO3c1xwtXwzZlMMFLRsOpO7UXZbQjtHv8Lzt5bV6sX2boqRZ8ypg+MJ0ARoANvOv8MuKv/BpaxEo7ADdCYzuCvQvXrbOZ68l6JvQVMqrROW1Ngj67KUI/8e990uVXgZYUeABjDgEF197e3yz9lNYqwRCjFAp9N2G8eQMCH6yft6di2M09e7sZWJpI55d5VeaO8mPOepoMutCg8BmgANYMA8I8eo4oKfKzB3b0I0Ci9AZ7PKDkULx4b+87j02N2E6I3C87eX1eqJtk6KkcciHpeq2USFAA0gN7zjJ9vtHP4dd6UYKLQEPTQtHBsyuxS++Jj04J+kdKrob4KOdEYnLqnRQy3tSrP0nNfCbreq2cabAA0gtyG66ue3KLDn/ta9j7sfCkc6MQwbdJgQ/d8npTuutRJka9HW3qw8f2HRSj3W2kl4LgBBeqAJ0AAG4U5XUqaKH12u4D4HE6JRMDKpYVwFfuuVnp7oIgzRtG0Unqj1uF7i4bGdAA0g5zyjxqr8zIsU2H1fioHCCNDp9DB+84z0xn+ku2+QEsXTE03bRmGaGPCJM10I0AAGMURXXX4d7RwojACdTA7zD2CF6IWvSX/6hdTS6Ph6r0umdMzi1bRtFGKA9rMLIQEawKByhcK0c6AgmM1U8sK786X7fu/oEG3C8xnL1+qRlg4OvAI0KeCnCARoAIONdg4URIDOZPLlB5EWvi7d48x2jkQ2q1OX1eqepjalsiw9F6LRPiZwEKABDFmINu0coYMOtT7g7G3kYYDOlxXo3hC96A3HtXO0WzU2K89/JzwX7mO5dZkQoIWDAA1gyJh2jvKzL1Hoo4cRopF/ATqTyb8fykHtHCY8X7i6Tn+ob+ZgK2DlXo9KmcBBgAYwxHfIimqVn3GBQvt/jGIAW0/177dzdBd2v/AFq+p03bomxTKsPBeyEV6vvZEKCNAAhiFEV1x8rSKfP1Yuf4CCAFsL0aad4w8/kxrWFtyP35XJ6DwrPP9qbSPh2QFG+b2KsAJNgAYwPFxen8pOPccK0f9HiAb6YsW70t9vLqgQbcLzVWsadE1tI7efQ5Rb4TnoYgo0ARrA8IXocESl3zxDkSOPoRjA1piT7pYskP76O6lxXUH8yCY8/2xNox2k4Qxj/T5WoAnQAPIhRJed8WOVHH+qXMEQBQG2FqKXL5J+f4W0cnHe/pgmMF+0uk4/WV1PeHaYKexCSIAGkD9Kjj9N0WNPIkQDfVFf29POkYchurdtw6w8w3nYRIUADSCPmOBcYgVoE6IB9MGa5dJdv5VqV+bVj0XbhrNNDzIDmgANIO9CdOk3vqsS68JKNIb8j0Uh7q5mVqL/+DNp8fxh/1HMhI3Laupp23C4KaxAE6AB5KfelWhCNNAHzQ3SfX8Y1hBtwvPv1jXpijUN3B5Ofmz2uFXhZRMsAjSAvEQ7B4bluCvk3THraqS7rx+2do4b6pr0k9V19m6DcK4ZQVafCdAA8j5Em3aOstPOsSd1AIP+x6LQt5c3K9FD3M6Rymb1p/oWnbF8LeG5CMwMMrOfAA2gIESOOt6eFU2IxqA/afM44KXpIWznMOH57qZWnb1yLQdPkZgY4ARCAjSAwgg1/oC9W2Hpid+nGBjkAO2QPxe97Ryrlw7qt7m/uc1eea5Lpjl4iiRMTeMEQgI0gMIK0dGjv6aKC34ud0UVBcGg8PgdFA7MSvTvr5TeejXnV53OSv9oaddX3q0hPBeRqPUEczwr0ARoAIUn/InP2rsWEqIxKH8snDZdoKNVeuDWnIZoE54fssLzqUtrlTC7IqKoAvQoHxM4CNAACo/Ho/BHD1P52ZdIXlZCQIDeqqY66Z4bpbfn9WwDPkCPt3Xo9GW1WpVIcsAUmXtWYeIAACAASURBVIjbBGgvhSBAAyjUEB066JOqvupmeUaOoR7ICZcVDtw+hz4pMyvRt/9S+u8TVojetkkZZuX50dYOfXHRKsJzkSq3HntHE6AJ0AAKW2CPfVV+5kWEaOQuQDt5g4hEXHrkr1aIfrLfK9G9bRsnLlmjDkbVFa3pQb+8LheFIEADKOx7tlvBfT+qih9dIVcoTD0wwADtksvj8NW1zjbpwduk15+TMn0/+Y+2DRizQsyAJkADcEyIDuy1v6ouu46VaAwwQJsWjiJ4edqsRJue6OceltJbDtFmnfrptk7aNmDbjgBNgAbgLLRzIBdPxhzdwrGhlBWGn7hXev7hza5Em/D8ZGunTlxK2wZkt25MYoQdARqA88IP7RwY0CHk8RT+Vt790d0pPXKX9Nqm2zleaO/SKcvWaHEswcEBe/pGhZcRdgRoAI4M0XY7x1U3yzt+EvVAv3hDQanYTpAyK9F/v/lD7RzzOmP6zDsrCc94z+SAT+Ue4lTRPS5SAqB4BHbdS+U/+KlafnaeUqtXbPbzOgNR1UdHaE3pWK2onKyWcIXSLo/c2YzKu1s0uq1WY9rWqCTWpqrORgWTMbnExhFO5fEX6cvTve0cxn6f0rzupE5atkbNKXYYxPvG+Lwq8bACTYAG4FwulwJz97a3/W4865vKtLd+4H8nPT79bZej9Mz0g7VgzBzVlYzcfBhPxawgvVYz6hZp7qqXtd+SZzWjfhE1dmKADgaL95df386xwuXT6WVT9XIXK8/4oGlBv0JuRtgV3Z/TbJb9RoFilHz3LbVcca4SC99Qyu3VkzMP0TUHn6Wl1dO2+TonNy7VEW/er/2XPKM5a96gyA5RveN2CpSXFXUNUi63Lpx1oK6aubeSblYb8b4/TRun40aUU4jikiVAA8Ucohe9pfqfX6jryvfSrXt9Xc3hygFfp2nzMG0dc1f+1wrT92n3lS+rNNZGsQuU2+vViJ1myRsOFX0t6v1hnbLr4fr7uO05MPCeV+dM026RIIUgQAMoFinr3v+nV2v0/XWjlR6EVTV/Km4H6JOf/5391pOhd7TQmBMIzQq0J8CcW2NhSbV2OeQkJViFxnrte8xSlJMIiy5Ac4sDRSppheffLZd+0DhuUMKzkfAG9MLU/XT8cX+2Lnfo4dmHW//mp/gFxOP3y8UJUu+Z1d6gr62YRyFgM1t4E56LE7c6UITMyvN1Vni+aokUH6J9IF6ZuKfO+8yVOvvIX2re+F3tcI0CCNABf3HNgO6Dw9YuVkkqTiGgXcK0bhCgARRNeP7LGuniRVLLEO9A3OUP69FZn9K3jr5Jvz3g2+rysbFL3gfoYKD4ZkBvxe7NtRoT66AQ0C70PhOgAThfb9vGGfOHbuV5U8zJijfse6o+d9I/9MCcI+0pIMhP/ihPcjY2NtauiV2tFKLIBawnlmaEHQjQABxsONo2tsZs0nLRYZfo/M9codrSMcqy0pl3vCGmb2zKjI5milDkyr0eTQ4QoAnQABzL5OV7aoenbWNrOv0R3bfT5/WtL9+s56buz42VT38gvF55g/Sqb0pVoosiEKDtbbxBgAbgQOms9MdVw9+2sTVvj5ql737xd7rsExfYvdIYfvbsZ14V2HRtshmKUORG+7z2BQRoAA5j/sTfulq6ZJHUWQAjmE1wvmOPr+r7n79WC0fNVsbFQ9Rw8pdEKMLm7ls8sSh6O4V5dYYADcCRHq7N6tyFUkOicH5mM5P66Rkf1Zmfv0YvTtmXG3G4WAHRx+6Dm9XAqyRFbw4j7AjQAJznn3XSd95yFcTK86YsrZ6uU758s27Y71R1+whyQ/7HweuRJ0hA2JzVoVKKUMSCbhczoAnQAJwYnn/4llSXKOzfI+nx6fr9TtOVHz9XddGR3LBDGqC98oZ4iXpTuj1erSRAF7VxPp+qfGwwRIAG4Bivt0rfflNa3u2QsOIL6a+7HaMfHXGVWoNl3MBD9cfBCggeHxMGNsWsPrf4WX0sZlODflWwQycBGoAzPNMoHft64a88b8ycTPj8tP31xW/er5cmf4QbegjYJxByotwmzSsbpXWBKIUoYrNCfpV5CdAEaACOCM9nviWt6nbu77iqYqIu/tTFep550YMfoKMExM35T+V4xTyMLytmO4aDBCgCNIBCN79d+tab0jsdzv9dl1RP1w+OvFpPzPwYY+4GicvrkTfCiZubkrUuj42aar9F8ZoboYWHAA2goJmV5y+96uyV5401Rqr1vS/8Wrfu9TWl3KwE5povFJTHS103ZVG0SvNLOaG1mEU9bu3GE0wCNCUACjs8O71tY3MS3oCu2/903bbn8fbsaOSONxSyV6HxQWmXS3dM3JFCFLk9CM8gQAOFq5jaNjanLVimXx58lh7Y8UhCdA6ZEwhdbv48bKw+ENEjo6ZTiCK3C+0bIEADhemVFum414tz5XljZiX6wsMv1fX7nqq4l7nFuRAoY8bxpvy7aqJerhhLIYr5vuFyac8oK9AgQAMFGZ6/u0Ba3EktNgzRt+xzkm7a5xR78xUM4I+CzydviBW2jcXcXt0xcQ6FKHJm85QZQT+FAAEaKCTLrNB84hvSG23UYmNd/ojdE33/nM/RzjEAzH/etGerJ+rf1gXFrdJrAjSvdIEADRSMJVZ4Pv51Vp63xATniz91kf605wlM59gWVnCmfWPTLt9uX7X4WJkvdjuHgyr1EJ1AgAYKJjyfsUCa104ttobpHAP4g+D1yBcNU4iNmN7nZ1l9hmX/0ghFAAEaKATNSenkN3pG1rF5Q9/0Tud4bPtPstlKvwK0V74wJ0htqMPr12+n7a4Ux1HRC7pd2iXMqxAgQAN5b3VMOmGe9FIL4bm/zEr0eZ+5Uv+c/WmK0Udm+25zEiHe98ioqXpg7HYUApoa8GuMj9YwEKCBvA/PZy6Qnm6kFtuqyx/WtQd/T89N3Z9i9EGgrIQibKDeOn6unrG3PYEDmB0KqNpHWxgI0EDe6kxLp70pPVIvZVh6HpCVFZP0409fpqXV0yjGFpidB30l9Hdu6KYpu2pe+WgKAduccFBhNhgCARrIT2bl+SuvSU82EJ5zZU3ZOJ3xhd8QorfAFw7L42e+ba93oxW6fLv9WH3Gew4tj1IEEKCBfA3PtG0MUiAaMVM/+9iPtK6EFcVN8ZdG7SkckNq9fl28/YH2CYSAUeJx2yPsAAI0kGdo2xhcWZdL/55+kC7/xHkUYxMCpSVsoLLevWO3113jZ1MIvMds322mcAAEaCCP1CWkE16nbWOwmZF2j8w+XL866HuKeVlN6mX6nzmBsMe8slE6f4eDlWSGOHrvH9blo8x/BgEayL/w/MOF0uMN1GKo3LrXN/TQjp9hRvR6gdJSuTwERtOycc6Oh2h1iCcTeF+Zdd/YPcJ8dBCggbyRyErfWyDdVyulWHkeMma83TUHnamXJ+5JMVwuBSvYvttslHLL5F306KhpyoqX6vE+M7puVihAIUCABvJBR0r6/pvSA2sJz8OhvmSkvv+Fa+0JHcXM4/PKX8J0gUes4Hz+7IO5Y+BDdosENSHABkMgQAN5EZ4ve1f6Sy21GE6NkWpd/KmLVB8dWbwBOhCQt8i3715YUq0LdjiIqRvYpP2Zjw4CNJAfLrHC840rpXiGWgw3M5njDx/5htJFetJYsKJMriLeHCJh3e5n7PwJvVk6ijsDPiTqcWuvKP3PIEADw6orLV20SPrdcsJzvjAnEv559+N0254nFN3vboJzoLyseO+PHp8umnWAHhs5TWlG+GET5oSCmkT7BgjQwPCG518t7QnPyC8xX1C/PeA7mj9mjj0vulj4omF5i/TkKBOYb524k66Zvhd3AGzWLpGgqrzsRgkCNDBsTHi+ZllPkEb+aQ+U6LJDf6z6yIii+Z3NyYPuIg0Hj4+Yoktm7W+vQgObc1BpWB5enAABGhh6JjBf/q502WLCc757bcJcXX7oBer2FUfPY7CyvCh3H3wnWqVj9vy8aoPMe8YW7h9ulw4r5xgBARoYlvDcu/KMwvDUjEPsnmin8/h98pcWXzgwEzdO3u1wNfs5MQxbtkckZJ9ECBCggSFG20bhMf3Q1+9/mt0P7WTm5EFXka0+rwtEdMZOh+qZ6kkc6NhqODqykg2GQIAGhpSZsHEVbRsFy/RDX3j4paotHePI38/lcStUVVFcT4zcXp202+F6bNRUDnBsVbXPq70ZXwcCNDC04fmmFdIvllOLQrZw9A72ZI6YN+i4381snuKLFs/mEM2+oM7b4SD9Y/RMDmz0yQS/T7PDQQoBAjQwVG5ZKf10cc9ugyhcZj70w7MP15MzD3Hc7+a3wrMnUBy77pmV50u330+/nrandZsyTgF9c0hZRGX0P4MADQy+VFa61QrPP1xIeHaKzkBUPznsUi2tmuacX8oKkeFR1UUTnk/Z9TBdO30vJYt0p0n0n8+6jxxaFqUQIEADQxGe762VLnqXWjhNW6hM13z0TLWEyp0RDsIheYPOf2m6w+u3dxm8Y+IcpVz8qUPfbR8KaEbITyFAgAYG20Prelae6xPUwomenPExPTL7MEf8Lv7SqD3CztFPaK3A/PMZH7F3GSQ8o7/2KQlptI/dB0GABgZNJis9XCd9bR7h2dGBzOPVrw/8nl6ZuEfB/y6R0SMdvXmKadv45m6f1k+3318xDyEI/ffZilK7jQMgQAODFJ4fqZe+v0BKZqmH0zVFKnXlx8+z+6ILlTccsls4nKp32gZtG9hWo3xeHVwaoRAgQAOD5alG6UwrPK+OUYtikJVLb47dSXfsfpzSBXpCWsjBW3dvOG2D8Ixt9fGyiL2FN0CABnLMrDw/0SAd+xrhuRjdtO8penHyPoX3YO/zKlBZ7sjbxJwwePzun2XaBgbEbNv9xaoyCgECNDAY4dm0bZz+ptTJDoNFyexSeMN+p6oxUlij4Ezrht+Bm6csiVTohLlH6J5xs1h5xoCYzVPmRtg8BQRoIOdo24Dx+oS5+tsuRxXUzxysqpDL7ayH/JXhMp26y2H6mxWe2SQFA7V7JKTxDp9QAwI0MKTMOYJP0baB9VJuM5XjjILZYMWMrQtWlDvo/ujS62Wjdei+x+qxUVM5IDFgZurGsdW0b4AADeQ0PD/TKH1nPm0beF/S4yuYDVYCZaWO2bo7bQWdh0ZP05f3/LzeLqniQEROzA4FtGM4QCFAgAZy5aUW6bsLpOXd1AIfVCgbrASrKx3TvnHn+B11yq6HaxHhGTl0SFlEo320b4AADeTEG+3SUa9ISzupBT7MbLBy/X6n6Z2R2+fvg7xp3ygvLfham0kbl26/v47b40jVhEo5+JBT3xhZIQ9t9CBAAzkIz23Sd96UWpLUAptXVzJKN+57St7Ohg6PqJLLU9ij3dYEo/ruTofqsu3244BDzu0SDmpm0E8hQIAGBmpxp3TGAunVVmqBLcu43Hpk9uF6cUr+zYZ2e70Ff/LgqlCpjt3jc7p10s7qZmtu5JjX5dJXqsvstwABGhiAZVZ4/vwr0sst1AJ9Y1aff3nwWaotHZNf4SASkr+0MLce7zlZcIb2P/AEPT1isv0xkGujfV4dWh6lECBAAwPxTod02nwrRHdRC/TPwtE76G+7fslekc4LVuAMF+jJg10en345fS+duNuntSLMaDEMnn1KQvYEDoAADWyjVd3SmW9JzzZRC/SfCc5mc5WFo2fnxc9jZj8HygsvfDb5Qzpnx4/qRzseotogK4MYXF+spH0D24aGMmB9eP7Sq9L89sH7HtlkVtlUpudtMiOlsz3vJ6x/M++nej629ws3H5uZ09nsVlKSS/Zjv3nrdfW8NRef2zT32f/m8lkXt8v+2N377+Z0c/5m5Fxt6Vj95oDv6jd3nyJPZniHhoeqKuQNFtbK2vNV43XGTofqlYqxHEwYdHtGQ9q/NEwhQIAGtoVp2zArzzkJz5n1QTjVE4wznWllutPKxq2QnLD+LdMTkN8Lx9kBfj/zfbb2Oe71Idu9Pmi7e4K2O+CWy7q4gz1vXX53T7D2ELAH4t/TD9LTMz6qjy56XK5sdnh+COsGD42okgpkZc20bPxjzAwrPH9Ca1l1xhA5rDyqEV5iEAjQQL/1tm2YnQa3mVkwbk0q026F5a6UMrFMT2BOZfPjl8ysD9kmtCffD9yZjZ4w2CvY3g2CtXkb8cgdsi5BD4G6j8wJhTfvfZJ2rnld1R0Nw/PAHgrKX1IYQbTFF7DH0/122h52kAaGynHV5cx+BgEa6K/a2La1bdgry91pKzSnlG6zAnNHykqjhV8PO/Bbl3Tsw7+MCdd2kI565Q5bwTrotj+2W0X4A/Qhr0+Yq7/v/EWd9Pz1Q//NXS5Fx47K/yca1s85r2y0vj73M3qjbBQHDYbUl6vKNJXZzyBAA/2zvEs6e2Efw7NZwU1klelKK9WQsNsyTA9z3qwwD1G4Tren7EtvoHZ5rfDsd8kT7Q3Wnp5+a4+b05Mt9+x6tPZf/G/NWvfW0D6oBwIKlOX3Tn3t3oBumzhHV2y3rz3nGRhKpdZj1DHVTHcBARrol7q49EMrPD9St/XgbAJjqi5hrzKb1gxlqV9voM6m0lLMKlObCdXxnpMXQ+73Vqo9pT2hulhXqFeVT9Rfd/uyLnz4x0P6fc3cZ9PCka+afEGduuthemDMdmyMgmExKxTQgZw8CAI00I8/3gnpK69JL21ukxRzjp8VllONSaXq4z1TMdC3UG0mh3SkrfpZwbo+Yf+bWZG2w3SZFaYj69s/fMWxPJ11uexV6CPevE+7rn5tSL6nmfkcGT0yL+uRtH62B0fP1NlzPqalkQruMBg2J46sVFmBb28PAjQwZBqsTPfjdzYdnu0WhRYTmntWmwnOOQqRVh3TzUm7tr3j9dzmxEQrUHusYG1P/vA6d+JH0uPTzfucrCvuP0sl8fZB/3726nM4v1afzT2pPhDRhbMP1F/HzbbnPAPDxaw+H8zqMwjQQN90pqWLF0l31Gz0PzJSqjFh9zabkEeLxuClqN62D3MCpnk2YwdqK0ybHmpPqc8O1S4HnhL/wtT99NLkvfWxdx4b9O8VHlktd56N5XqhaoJ+tMNH9Wz1RO4HGHZHVZZqUoCTBzFwrmw2S2SAs8NzSjrpDekf694fltGzMppQYnVM2ViGIuUDt8tu9fCU++Qp8chlTkp0OyNQ71A7X9f/5Rsa0VE/eOXz+zR67k7Wk5D8eGnajKe7cua+9ni6di+BBcMvaD2eLN91pkb5WDvEgGU5iuBoZlH5isUbhOd0VqnmpFJr40o7ZPycY2Q2aPfw9Wzs4im3AnWFr2ezF2/hjsx7d+RMPTLrMB338q2D9j3CI6ryIjwn3B49XzVBV1jh+cmRk5VyMZIFw888dBxdVUZ4Ru6OKVag4VRxKxxftEi6frm9f4jd25ysiStlziTkqC8cbldP37R18Vb57HaPQgzSk5qW694bP61wsiv3JfL5VDVruvylJcMeni+YfZBunrwrvc7IKyOt4HzvzAnap4T+Z+QEK9Bwbnj+7nzprjVWeLY+SK6OKVmXsFc5UWCs2yzTnrIv5pUDM9nDbvOo8stjhWqza2IhWFE5Wbfsc5K+9exv5M2kcnrdgbKSYQ3PvRM2ztvhYL1dUs0xi7zz2YoSwjNyigANxzFtGz9bIv1ldVaJ5pTd52zvFghnPO1PZu1pKammpNx+t9xRj7wj/Os3csnvNo97d/6CPvnWPzWjflHOrtOMrguPrBqW38fsJlgTKtXl2+3LhA3krUqvh41TkHM0p8FRzMqzCc/XLc2qe1m34os7Cc9Olc7aEz1MmI4t7FDsrQ7Fl3XZO0Xma4vOmrJxenDOZ3N6nb5oRP6SoV99Nr3Nfx2/gz61zzG6fspcwjPy1iFlEc2NcHwit1iBhqPCs2nbuGNB0g7P9rg0FAfT496V7tlufW3c3g3RU+nrOQHRtHnk0Xi8B+YcqcPnP6jt6t7OyfWZ1Wf3EJ4YZVad55WN1g92PERPj5isjMvF8Ye8ZSZvnDWm2t6+G8gljig4gtn87qp3s7r9lZi6FncRnoucuf2TNTHF3+lQfGGHkmvi9r9l86AHvq5klO7e7eicXJfH77enbwyVVaFSXbr9Afrc3l/SkyOnEJ6R18zReWhZVLtFghQDuT++mMKBQpeyjuAr38nqyqe61VEbZ8IGNv1gZ04+LPPJW202bfEN66q0PxXXQ9cfqgnNKwd0PdGxo1Q2ddLg38dcbj08apoumn2gvfqcJjijAJje59umj9dh5VGKgVxjCgcKPzz/4NW0rn+qS7E2ep2xhUc7c/JhQ8+ukyZMe0cEeuZMm7F4Q/xaXMIb0PX7naoLH77QDtPbwhPwKzx65KD/rM9XjddVM/fRQ6NnMNMZBeULlaWEZwwaAjQKViIt3bwwpev+1al4FzuioH9hOrkmplSdy57eYY/Es8K0O+gZsikeT878mI5+7U7tVPO/bfr6QFmpfKHBeWk6axVhSaRCt0zeRX+YtLPqghH734BCUe316KRRFRQCg4blBBSs295M6vx/EJ4xgKCYyirdllJieZdiCzrst2be9FBoDlfq1j2/prS7/7sH9oyuq7beyX2oNZuhXDd1ro76yBd1xXb7al0wSnhGwTmiskQ7huh9xuChBxoF6ef/ievix7vVEefwRa4fFWWvRHvHBOQp89oTPQZLaaxNP7/3uzpg8TP9+rpQdaUqZkzJ6dbdXR6fHh01zQ7N/60Yy3GAgmW26/7fTtPYthuDiR5oFJZkWrprfoLwjEF8WOyZ4pFY1iV3wC13iVfe0QE7SLu8uV2JbQ+W6C9zj+13gDarz7kKz3G3RwtKR+jHsw/Sc1UT1eoLcAygYHldLp02upLwjME/1igBCsm9CxP6/sNdhGcMTZCOZaxLQqnGpDwlHnmr/fJYl1xN8DCtEc9MP1irKib2eSKHNxhQoLw0J99/cbRS107bQ3ePm621QU62QuGbHQro/9h1EEOAFg4UjBtfieuHj3arNcYhi2F80Oyd4FHls0J1btYgvjDvr32ayGF6n8unTVJ41IgBfb/l4XL75MBfzPiIOrx+blQ4gs/l0p0zxtvTN4BBRgsH8l8qI923MEl4Rn48avZO8KiP2yPwPCP8dpA2wXpbmYkcx7xyuyauXagGt1+1bp9arItRlklpTCah6kxSlSG/AuXbtrpmZjfXBkt0+4Q5un3iHL1TUsVYOjjKoeVRHVQaoRAYEgRo5L0XV6b03Ye6CM/IuyCdakwo1ZyQJ+q1Wzt8VpjWNrR3tHsCumPEbJW1tWm5N6SN58r4lNW4dFy7Rzz6nMen8n5ev+lr/sOkXezLG2UjufHgOH7rCeJF40eqyuuhGBgStHAgr726Jq0v39WhJU2MqkMBPKD63fJU+uRbf9Lh1qa/ubIZldXM1/SnfqNw86o+fY/R1vf41tiQdjWhfSvX3+AP64ExM/XT7ffT0ggzceFM5n5w5phqXTlxFMXAUMkSoJG3VrVm9MlbO/R2Q1ocpSioIB2wgnSpV9717R2bSromPFcvfk7T/n2D/J1N/br+Mq9LXx4Z1OGV/g9dtTkxsT4Q1v1WcL5xym6aXzZSMTcvNsK5do+EdP92EzXWz3GOoQvQHG3IS6Zd4+xHu7WwPk0xUHiPrPGMUvUJu8XDa4Vce3pH+Qe3DDcrz1Ofvbnf4dm+f6Sy+vO6mEb5XNqr1Pfev5ugfNf42XZwfqFqAjcEHC/odumssdWEZww5VqCRd7qSWZ18f5fu+F+CYsA5D7ZBt/zjgnaQ9nhT2u3Pp/e5bWNzyr0u3TizRN2hCK0aKEonjazQLyaNVsTDCbEYUqxAI79krKdzv30pbk/dABz1aBvLKG42Z7GC9ISuFwYcno2WVFbneMfp+X0P08KyEbRqoKhMCvh07rgRhGcMCx5tkVderknpwie6FUtRCzjxGaL1oNvWqtFL/pWzq3ytoVNv+aKKE55RRKJWaDbh2YRoYDjwtA15w/Q7H3t3J+EZjhZMNKqsc2nOrq9s7WqFWpooLIrKcdVl+mp1OYUAARrFraErq3P/1a2ljKuDw4Xja+XJxHN2fa5MRqXraiksisZe0ZDOHlttn0AIEKBR1H73UlyPvkvfM5zPn+rI/XV2dlBYFI3LJ47SlABb0GN40TSHYffUspR+8mQ3hQAAbJZZcT5n7AgdzHbdyAOsQGNYLWvO6NzHCM8oHnFf7vs2YyWlFBaOd2hZVKeNrqQQIECjuJmTBa96LqaXVnPWIIpHt3+EUp5wzq4v4/Wqs3okhYWjTQ34ddnEUar2eigGCNAobn+aF9dt89gsBUUWoAPVaolMy9n1tY0co66KKgoLxzKtG3fMGK/ZoQDFAAEaxW1FS0aXPxNTZ4KNMFFEPCmlqptUt2PuToBq3GV3pcvKJRcTCeA8ZpOUi8eP1J7REMVAXuEkQgw5E5pNeDYhGiga0Qa5d3hErvFvao2nQxOWe1SyJj2gq4yNGKmmQz6lSCikZDyuWEeHMilaouAcn6sotfueWe0DARpF7x/vJO32DaAYuEYslWv6c3JNfE3y9IxqNE8d3zoqrJ3+1KlQ87Y9kUyUlWvZV76uVDRqh4tAOKzA+iCd6O5WIhaTsrzCg8J1dFWZfjNltMJu4jPy8LE9m+URFkOntj2jI+7o0Ks1aYoB5/Kk5CqvsYLz83KNe0MKmjnN2Y0efKXqBUnN+nuXgv18NcaE5+VfOk5Nu+2l7CbChXlYTyUSSnR12W8zae5vKKBgYl22DwX06KxJmuBnq27kpSwr0BhSv3oxrnlr+GMOB9ugVUOBzW9wkrVSQsMOPr0RiWjW37r63M7RPXqsvfLcNmP7TYZnO4C4XPIFAvYlnUop3tmpZHe3MhnappD/pgb9um36eMIz8vuJHivQGCqv1aa1zw1tSpCf4URmxXnaC3JPe1Hy9q9FyZ2SRj3boTGvJ1RWZ4XfjYbTpK0c0VKdVdPOu6n5wSKUtgAAIABJREFUk6cpHer/GDzzUG9WpE17RyqZpL0DeWmM36u7ZkzQ/iVhioF8xgo0hkZTV1Y/eaKb8AxncWWk0nVyTf6v3FP+K4Vae3oz+ilj/bd6UkprK7MKdmYVaZH8sZ6rj0ekrqjUbV2yFY2K+tLalnkbZlU6EInIHwr1tHdYQdr0S2dZlUaeKPN4dO3kMdqbiRsoAARoDImnlyX16OIkhYCDHj3jcm3/hNzT/iNFGgd0VZmOhLKJjJJ+2Zf2is18YrxGiZZXFKg+eNszv9stXzBoX0yQNq0dcetCkMZwh+efTRqlL1ayqyYI0IDNbNd98VMxJVl9hhME2+yJGu7tnpZK6gd+fdmsMg19nJiRSSpWe58ClftJ7oH3h3r9fvsSLC21g7Td3mGFajr7MJSqvV79ZsoYHV1FeAYBGnjP7f9L6K160jMKnK9brhFL5NrpH3KV1/Y0LudAtjOp/jy7zMTXKdn2P/nKd8/Zr2baO/zhsL0qbZ902Du9g5nSGGRRj1u/nDxan68soRggQAO91nVk9buXYkrx6jAKWdUKuWc/KteYhdajZg63n89klWnt/0z0eP3j8pbMkssTyemvado7elelTXi2N2fp7CRIY9DC84UTRun/qssoBgjQQK9YKqvz/tVlh2igIFWsltvMcp72Qs5WnDeU7U4p297/QJ5se1PJ1nnyV+47aL+62+tVwFwikfdPOozFmCmNnCi3jq2rJo/WNwnPIEADHzR/XVoPvM2Jgyg01hO+YLtcU/8jtwnOJQ3aeBOUXLFXn7flqrNpxdc9LF/pTnJ5B/+l795V6bQJ0+t3OjStHpx4iG0RtMLzZVPH6qsVUYoBAjSwsRtfSaihi9VnFBBXRq5x8+Wa9S97C+5BjenxtLJd2/4EM9W9YsATOfrLYwUfczHbhicTCaViMSZ4oF9C1hOxU8eP0omVJQQQEKCBjf1zUVJ/X5CgECiY4Gy3a8z5p1xjF/R8PMiyLTEpOYDvk+OJHP2r1/s7HZoJHr2r0syVxpaURiL60fiROqsiTPgAARrYmDlh8KZX4mqOsfqMAhBufn8HQev9IWFOHmwb+BNMM5Ej3vCkAiM+bs4AHJ7nHiZMB4PyWmHa9EebVemEdaHFA73cHo8iVnj+/pgqfbs8RPAAARrYlNdr03r03SQ7BSO/ubJyjVok1y73yVWxekhWnd8Lvqb3OUejaeL1T8hXvofc/srhLacVpO0Wj2hUfisspZNJ+6TD5PowjeJkjomSsjJ9pbJE55SHFXBRExCggQ9pi2f18+diivH3EvmsrFbuHR6Ra9JrQxqcbemMsm3x3F1d90olmp5VcPRn8+e5iRWme088DJWW2mG6d7a0eR9F8PzU7ZI/FFZpWalOLg3p/LIQ4RkEaGBzXl2T1hNL+AOJPOXvtEOzmemscIu9Cj3Usl0pZbtzOwou0fis/JX7yO0fkZdl9/h8CpeV2S0eZjXanuJhNmqxPmbXQwcGC+v2DpaUKBgM2OH5zNIg4RkEaGBL7nwjoaZu/iAiD5WulXvnB+Ua96bkHr5Zxhmz+pzj0JiOrVG84WmFxh6V1zeB6YU1F9/6fmmzGs3Jhw7icikQCtnh2W/dzkdF/Kw8gwANbM0LK1N6YCGTN5BnzKrz9Bfk3ukfg7IZSn/Yq8+dg/AzZDOKr31I/qr95QmMLoib5b0wHQzaTyjszVpMv7QVqs2FlenCYm7HkBWczasNPiswn1QSJDyDAA30xY0vx1XP3GfkCzPTefQ7cs1+rGems3v4G/Oz7XG7B3pQrjsTU3zdIwpPONb63X0Fdlu57Cke5mJWok2bhzn50IzHy1gfs/thHt9uVmA2u1WaVxXMVvBmFsyJ0SBtGyBAA31htuv+6/wEkzeQH3wxuWb+W+5Zj0n+7vz4mXI0um5Lks3/Ubr6QHnCUwo3k1khrPcERLMKnbHC9Hur04kEK9N5wmz1HjQTV4JB+zaz/826HB7260flQUVcpGcQoIEtSlt/z655kckbyJMANnKxXDvfP+g7CfY7P7cncja6brPfI9mi7jV/V2Tq6VaoCRT+bWlG4/l89sWscprwbFalk4m4FaZp9RiW56aBgPzhsB2ctUFI9liX46IBXVIRIjyDAA30xYrmjB5YyOQNDLPeCRtzHpKC7Xn3LDPbGh+Sb5VqX6BU25vyle/uvCdH6zdtMZfs+tYOszrdOx7PtHtwMmLuud1uefx++UOh91o1NnZ0xK9zywjPIEADffb0sqQW1tOjiGEUbZB713uHfcLG5mQTaWW7h+Ylmmy6S7G1D8hXtouVOJ37EG9CnMdcelen1/dO9wZqcyFMD7zGgXC4Z6dJq87aTDje0+/VheVhVXsIzyBAA33SGsvqpleYvIFh4knKNf4Nuff4i+TvytsfM9Mcs3ugh0qqY5Hi9U8qMPLjJgYVTdjr7Z3ueSaR7TkZ0axOm5nT1vv29uK0fGz5LmV2k/T77E1QfKaWW1lR/lTIp2sqIxpBeAYBGui7Z5anWH3G8Ag3y73DY3JN/q990mC+GsrV5w3FG56Qt2ynghlrl/tE/X7/tMLhnvYOE6rNmDyzQm36p00bSJG3fdiTM9av5JsWDROgzXhB9aEV4xNWeL6sIkx4BgEa6C+zcYrZvhsYUuU1cn/kdrkqVg/9Vtz9DdCdSSk59E8y010rlKh/SqHxx3C8WGHQDoXqWWGVFRSN3p0Re1eni2YG9frxc2a13vQ0u3tDcz/s4PPoKis8T/C6Ob5AgAb6Y2lTRne9SfsGhvIRKyHXjGfk3uHR/BlPtxV2+8Yw5bF449Pyle8mb3Q7jp1N6N3MRYEPTizpDdRmlTqTNgE73bNSXYBbj9srzNbv6DEXsyJvQnMfWjO25ICgV7+ujBCeQYAG+suMrrttXpxCYIhYB1yoTe6598g1br7kKYwnbnbrRmL4WpyyyTbF1j6o6LTpVmDycBj1NVibFVnr0rtLYnbDS++qtfW255JSNvP+/+8dhj9UQdtMJjFh2NV7MYHZ9DGbixWYTXuGq/eSgwkZJjz/jJVngACNbVPfmdE/FzH4GUOkcmVPeM6z2c5by/zZtviwrT73/hDJ1tety//slWhsU0LtCabv/dX02jsmfqDK6/uoe/up7TDd+37vv/f+2wZB+wMhe/3HG4+I6w2+5vu7PB77fTsUm/fXB2P3Rm8Hi2nbYOUZIEBjAJ5dntLLNQRoDHZ4yfTsKGhmO+fxlI1NRtdketB3HuzbD5JW95p75AlPkttfxTE1GIdpb4B18O9I2wbwQdwT0G9mM7V7FrBxCgZZqFXuXe6zLvcXXHi2c6s5eTCVHyc4pruWK97wlFkq5bhCv+1H2wZAgMbAvVWX1osrWX3GIIo0yb3nn+Xa/qmC6Xf+YHrOKtuWTz93RgkrQKe7l3NsoV8mW6H52sqIZvrooQcI0BiQRxcntbaDlSwMAtOyMWqRPB//Rc/Jgq7CPM6yXSll4/n1JDOTaFTX6r/YLR1AX8z1e/XXEVE7RAMgQGMAzCvSd/4vkS+vTMNJzK6CU/8j9z5/tDdJKWTZjkTPqJp8u/+2L1Ci+T+0cmCrdvF79IvKsKaz8gwQoDFwixrTmreWFSzknmuHR+1JG6b3uaBlsvlx8uAmk31asdp7lUk2ccBhsyrcLis8RzTHT3gGCNAYMLOg9vtX2DgFORZusVed3Ts+LHkLf7Z4Pp08uMn7cfdqK0TfTysHNmmq1607R0TtFWgABGjkwNr2jJ5YyvQN5FBpndx73inXpFed8fuY1ef2/H+SmWh+UYmWVzn+8AFTrPBsVp73CDDhFiBAI2fmr0vrrXpWrZCr8LxO7n1vkWvsgoI9WXBj2VSmZwU673/ODsVq7jLvcBzCFnH1tG3sH/TKRTkAAjRy589vJJQkPyMHXGMWynPwb+SqWK1h3qovt8G0I7/bNzaUjtWou+ZuWjmg8V63/jQiogMJzwABGrm1ui2jV2r4Q4uBJuesXBNfl2uPv9iznh3FzH5uL6xzBOKNTyvVsYjjssjDs9kk5cCgj2IABGjk2qtWeF7ZyugrDCQ8Z+Sa8JrcH7lNrmiD4369bCytbKKwnmRmk63qrr1X2XQXx2cRMm0bv6oM6xMhH2EAIEBjMNyzIKHORJZCYBsfadJybfeU/r+9+4CPur7/OP7+3V0ul7sECGEFBEUQQVFAXKhVUesWRalWqx1u/9Wqf7VDrbbaaqt1g4irrmodbbXWVVdb/05kOQDZOwRC9uX23f++P4wFJRAg4+73ez15pCCr5Jvk8rpvPr/vzzPmcUectLHJGDW7z3l4QLo5G9o+lQOu0jy2MTZAPAMENNpFNCm9sZDTN7CNzM7zkH/JM/xV+2YpzqznL2+ekpf/9pRia/+pZHgh76suimfGNgACGu3s7cUJVTay+4xtjOeBH8kz4kXJ79wxAXPb7kwsf68RyKQiiix/XOlEHe+zDue3pFtLGdsACGi0K3Pqxt/nsPuMbeBNyhr+qjz7/cm5O892fUrp2vwfS0k2zlV01XOcyuFgPb2WHigr1lHEM0BAo32tbkzr3WWcFYutZHaed31LnmFvOOaM5xalsq9fkzOeIHCDFecq81i6qVtQxwQZ2wAIaLS7BevS+qKKHSlsZTybsY09XnbsBYMbMidv5NvpGy2+Ll/eYMV8D2e5pluRTgz5xT0GAQIaHeDV+QlunoKteET58rQNc86z1x2jP/b4hoMuETA3WGla+pA9F438V2xZurk0qB8WFxLPAAGNjlAXzeitRcw/o5XMTVKGOPy0ja8zx9ZFnTfilKibpnjNB9knBpz9nu/x/POuRXY8AyCg0UFmr0lpOTdPQWv7ue+njj9t4+sykaQyCed9jGTScfuCwlRkCe/YeeyyLgGdU1KoQu7PDRDQ6DgfrEiqqonj69CKeC6fI89+T7pn57k5NM3NU9LO/BhJx9cpvORB7lKYh4KWpZ91Deh/sy/EM0BAo4M9Pzvh1DZAW8Zz7/myRj8nBRrc9Yqb4+vCzn7CkGpapGjF8/aONPInni/pUph9CbAYAAGNjlYTyWjqSo6vwxb4m+TZ7wlZXVa77lXPRBJ5eevurRVb85oSHG2XN5rj2YQ0gPbDRbnYpNcXJpx4bRTaUlGdPPs/LhVXufLVt8c33PB6pmOKLH9MHn93+Yp35f0+RzXvPP+saxGLAXQAdqDxDamM9K/F1DM299Q7Ls/wV2T1+cKdr38ybV9A6BbpRK2alj/KPHSOxzNjGwABjU60LpzWrAoOf0bLzFnP1sAPnX+XwRaYkzcyMTd9jGSUCi9SZNVfmIfOQReWMLYBENDodEvr0vq0koDGpso5vf7EDfsug+4NqUxjQm68wja25tXsyz+zP+J4y1xgTtgw8XxttyLiGSCg0dk+XJ5SY5zjN7AJ3VbJY07c8Lh4xCcbzpmwS588ZFKKVf5DibqZfCzkQDyfU1yoq5l5Bgho5IZ3ljL/jE3wxeTZ80XJhSdubNSQ8ZQjb57S6ucPZh566cP2OdHoPOODfvsug8Uedp4BAhqdztx5cEYFAY1NPFiMeFFW39muXwf74sGUu0cY0vEqhRffm43pGj4wOvp5bPblhGCB7uoeIp4BAhq5Ys7alKrCjG9go2SUVT5b1qD3XHvR4EarYeaf+RBRsmGOIiufUSYdZTE6MJ5PDPn1h9KQCmhngIBG7vh4ZUp1MeoAGwjWyjPqBXuEw/XM/HNTgnVYvxhKVL+r6OqXWYoOckRRgW7qFlRPL/UMENDIKW8vSipDP+OrR4iUPbqhbitYi6xMU1Lc336D9UjHFV31jOLVH5j/YEHa8RP1YYECPdAjRDwDBDRyjbnz4EfcvhsbsAZMk9WfExf+G9DsPm+KuVPh+pM5eHLRHp+kjyoyM89BhTiqDiCgkXvMzVMaGN9AM3Pqxh6vMLrRLGXuPkhAb0o6Ua3IiieUiixnMdrYoYEC3VIaVD8fn64BAho56bUF3GEMX/Im5dn9NalkDWvxpUwio0yUGwy1+PwiukrhhXfaJ3SgbT45m7GNR3uGiGeAgEauasrGwaeVzDBiPat0uazB77IQGwZ0NMH8c2siesn9SscqWYzt/MTM2AZAQCMPmKPr5qxhdw1Z3oSsYW9KhY2sxYYBHeb6gNZI1n/C8Xbb6cCAj7ENIMf5WAIYFY1pLaohoCFZ/T6xz33GBvGcTK+/yhatEq9+zz6VIzTwfyRPAQvS2o+97Mu+hT492qNY3bhJCpDTeHoL29QVKfoA9o1SrCH/4cLBbxRhSpkUI05b8ZRD8dqPFFn5dPbJR5jlaGU8HxzwaVJZiHgGCGjkiw9XUM/IfhLvtcB+wddy0Dy7TDH/vHWLln1SvuYVRSv+Zo7pYD22YKTfp9u6h7QzYxsAAY38UB/LaNZqxjdcz98ky5y8gW+2IPPP2xXRTcsetn+MTRvs8+qhHsQzQEAjr8xfl9K6JnbX3M7qucB+wdcjUJz/vJ0RHVv3jiIVf+PCwk3Y0+/V5LKgdiKeAQIa+RbQaVVHmO90fUAPnGqf/4yv9V88xfjGdi9iUtHVL2Rf/s44xwbMzvNtpUGNLuR6foCARt6ZuiKpGN3k7nguW8ruc0vtFyb42kQ2nKMVLyi89EEiOqu/z6M/9gwRzwABjXw1s4LZRNcr/1wKNLAO36jnzPoLCNFG65lSvPr/XH86x5ACr+7pHtTu2e8BENDIU1NXEtCufyAw4xsWYwrfYEY34nx8tHVEu/l0DrPzfEtpkQ4OcD42kM/42pHLTV+VUmOccHK1rqukkjWswyZbL6NMjIBul4iufEmp2GqFdjxPVkFX18Tzkz2L2XkGHIAdaJebtpIvT7udVT6HRWiJuTggzRPMdqpoJWo/VnjxJKWiKx3/2jK2ARDQcAjTBZ+tYXfN1bwJWT0Wsw4tJV6Ej4/2lqj/RE1LH1I6VunY15GxDYCAhoPURTOas5bj61wtUC+VrmQdWgpoLiDsEMmG2aqfc7USdZ9kF91Zj0m9vJYeLAsRzwABDaeoiWS0qJodNjez/BFZwRoWYpNVl17/go55spIMq2nJZMWq3sw2dMwRr9OOPo/u7B7SPhxVBxDQcI51kbRWNRAIrhaqscc4sImgi6eUSfHx0ZHSiRpFlj+x/oSOTH7v/pud55tLgzq6iJ1ngICGo8yqSImvULtcEbvPLQd0mgsIO2Pd07FsQD+vxvm35O3FhSHL0h3dQ8QzQEDDiT7m/GcUNrIGLTEncNDPnSZR/5nCi+5Wom66fexdvujhtfSb0iIdRTwDBDScaW4VAe163DylRZkIX57pXGmlmpYqvPAuRdf8U5l0NOf/xWbn+ZquRTqruJBPrgABDSda3ZBWZSPxRCVyJu2m12X9DDRy4E2Rjimy/FGFF9xhB3WuKrSk27sHiWeAgIaTLalNqzbKBVKuFwuxBpuKtkRq/W28kTPMedGNC25RfN1/lEnl1m50N4+la7sWaXzIzydVgICG8wOaQHC9hp6swSafWLD7nINPa5SOr1N4yRQ1LXsw++OqnPhXmZ3nK7oEdH5JQBxWB7gHH+8utbA6bV8jBZcnSVN3KdJVKqpjMTZclygBnbtvnJTi6/5PiZqPFSg/SYU9D5flK+m0eL69e0jfCfn5ZAq4DDvQLmWOsAMU6aJM9QDWYaNAy74k+PjI+TdTOqpIxV/s4+7iNR92+EWGzWMbxDNAQMNFZlaw/QwTigFlVg5nHTaUzijDHQjz5G2VUDI8X+FFE9W0eIqSDXM75P+WsQ0AfOy7UDie0YJqAgHrZRaNkYa+JXWpZDG+DGgl+PjIr3fihOI17yte+5F8xUPt0Q7zveVph7OYMyldEIjogi6lfAIFXIwdaBeax/nP2CgYvUrPGifFilkL00dmB5pbeOfpGy+lZMPnCi+8U+FFdype/YHSiVrzRm2bvz7ZoMjKZ/XK7Nv1We1C1htwMSuTxTK4y+Mz4vrBX8MsBDZ4Kp2SNex1efZ8Kfuo4O54zIQTSi2r533CIbyhQSroMlL+soPkDZRv899jbiseWfm0ErXT7FAf3W0XTRl1qUaX7sIiAy78VEFAu9Av/hnR79+JshDYyD79pWOOnK7boo8pmkm4dh3StVGlK3iC6ciYDu4oX5c9VFC8qzyB/vL4u8vy+Ft+X0jUKBVepETdDMWq/mW2oDf69e4FJXrxgBs1pmyorOw3AO4JaEa4XCaSyNhH2AEbxXM/r6acENLwPoeqa01UN1U9r9qUSyMyzseHU5k7GZqXuOd1WQVdZHlD2Yguk6egLPvf5ii89RGcSdYrFa1QJl5lj4BkUpFN/n3ViQb9cNqtmjzyJzqs1wgiGnARdqBdZk04rZOfDOu9ZZzCgfVKiyy9eXaJRvZZf1vvRCaliTWv6ro1z7hyJzq1qlGZuhjvGGi1QaFye5zj8F6jWAzAHTJcROgyddGMltaww4b1Bpd59OKZxV/Fs1FgeXVJ6dGaVH62AlaB+xYlzkW22DoLwxU66YNf65+V05TK8PgKuAEB7TLVkYwqwzzAY308Tx4X0pj+35zk8mUj+owuB+mGXqeqmzfknkVJZdYfYwdspcZkROdNv1Mvrf6IiAYIaDjNstq0uEcEiv2W7j8ppMMG+mS1MLZpIvri0qN1dY+T3LMTnU4T0Nj2x9fIGl0yc5LeXDODxQAIaDjJ3LXUs9v17+rRc6eHdOhOLcdzs+Zxjinl5ynkKXT82mSSGXFVCLY3ok/58EbGOQACGo4KaG6i4vp4vuf4oA4f1PodZbMT/d2uB+rWXmepp7eLsxfI7D5T0NhOjHMABDQcxIxuLFjHg7lbmbGNB04K6rhdC+TdytO2PLJ0dumh+nXPU529E23PQPO+gu23fpxjol5ZPZXFAAho5LPVjWnVRqkDN2oe2zhy8NbHczNv9uHinNKx+nO/y9Tb19WR62TfwpsdaLRZRK+1xzn+uvJdJTN89Q8goJGXKrMB3RhnHdwYz1s7ttHyA4alo4tHaHKfczWwoJfzFitFPKNtxdMJ/c/Me/TcineIaICARn4GdEbhOIHgJn6vdO8J2za2sTknlIzWbb3Pct5OdJqv0KAdHntjNbrsk/v06NLXWQyAgEa+WVFvdqAJaLfoFbL05HeK2zyeN4zoF/r/VAMKejhn0ZJ8fKD9Ivrc6Xfo7gXPK5rmS4EAAY28sag6zRG3LornO48Natyw9j2/eXRgoB7se4GGFvZzxLpl+ABBO7t29iOavPAfRDRAQCNfmJuowB1uPTqoCcP98nXAR/jY4O66u88PnbETzQw02llDMqLr5zym2+f/hcUACGjkg88quYDF6UoK1+88nzWyY+J5w4h+vv+V+R/RnMCBDoroaz5/RL+e87iaUjEWBCCgkcuW1rED7fR4/tVhRTp/n845p3mPwgH5P87BDjQ60C3zntWt854hogECGrmqJpJRQ4w4cLJfHhrQRfsWKuDrvH+Do8Y5gHZmwrk5ogEQ0MhBi2vYfXaqYIGl68cGdOVBgU6N5w0j2oxzDPGX599ipvg4QcdH9K/mPME4B0BAIxctWMf8s1Pj+aqDCnXVtwI59e8y4xx/7HuRRgZ25I0EtALjHAABjRy0jPlnR2qOZxPSuWbfosGa1Oec/NyJBjpY8zjHb+c+yWIABDRygTlYgBEOZ2ke27j+sKKcjOcNI/q1AVdrTNEQWbJ4wwFbiOibvvizLp812T6pAwABjc58UE5ktKqBgHZSPOfi2EZLdigo08N9L9TY4G5ENNAK9y1+Wb+a/RgRDRDQ6EyR5PpTOOAMl47J3bGNlgz299Gk8nO0f9EuvAGBLTB3Kbx30T908cyJiqeTLAhAQKMzhOMZVTayA53vzAkbP8nG82+/XZRX8bxhRL/Q/yp9O7SHvDz0AFuM6MeWvaEzPrpZa2K1LAhAQKOjmRGOqiZ2oPM9ns0ZzzceXpTXr0epN6Qp5efr2OKRRDTQCi9UvK/LZt1HRAMENDpafSyjWkY48tqP9iq07zJo7jaY7/oXlOmuPj/SYaHdc+8fZzGjjdySzKT07Mr/6Nxpd6gxGWVBAAIaHWVFXYY7FOcpX/Yj9OTdC3THsUFHxPOGEf3sDpfn3jiHh4BGbkb0i6s/0IQPbtDyprUsCEBAoyNUcAJH3sbzhOF+3XtCSH6v816/kCeQe+McBDRy2BtrZ+jiWZOIaICARkdYWstdCPPR0bsU6M5jg+oVcm7U5dw4B/2MHJbKpPXS6g913nTGOQACGu1uWR3zG/nEm424IwcX6MlTQ46O5w0j2oxzHFe8l3xWJz8k+XhIRO5H9GtrpjHOARDQaE/mLoTLuY13XsXzcbsW6IGTgir2u2c71Ixz3F9+vk4p2b9TI9pihAN5gnEOgIBGO2qIZ9QYZwc6Xxw+qED3HB9U/67u+9Ds5eui23t/XycU7915/wh2oJEnNhznqIk3sCAAAY22ZO5AGE0Q0LmueWzjudNDroznDSP6iX4X68LSIxSwCjrnDQHkUUSbcY4T3rteCxpXsSAAAY22UtWUVjjBOuR6PLtxbKMlfsunm3qdkY3ob3d8RHt5SET+ea96ti6ccTcRDRDQaLOADmfsOxEid7l5bKMlJZ6Arus5QeeVHt6h/7+WeTbDHDTyTCb77a21M3XG1Ju1KFzBggAENLZXTTSjaJKAzkXmpncHDPDpqVNDxHMLEW1mon/W40QFPYUd839qdqC5GyHyNKKn1szTse9eqw+r57IgAAGN7WFu4R1Psg65GM+HDfTpkZNDKi0i2Dbn6rKTdEXZ8R0S0ZbPksWjIvLYF40rdNHMu4logIDG9lhRnxb7z7lnTH+fJo8LaXAZH4JbYsL5yu7H2xHd7swONCMcyHMzahfqBx/fqk/qFrMYAAGNbcFtvHPPkB5ee2yDeN66iL6uxyn6Zc9T2ncn2sxAcyEhHMDsRI97/zp7NhoAAY2tVNnI/nMuGVnu1aPo4j3cAAAZ60lEQVSncMHgtmreiW7PiLb8XhYajrC0aY0unjmRiAYIaGyt5fXsQOcKs/M8eVxQ++3gYzG2UYeMc/h5WIRzzGlYrrOn3cY4B0BAY2usZoQjJwzo5tEzp4WI5zaKaDPOcUOvU+2TOtqaFeBtBGcxO9GMcwAENFopmW3ndU2McHS2YT29enh8UHv2YTSgLV3e/Tj7rOg2j2hzO2/uSAgHRjTjHAABjVZYG04rTT93KrPzfM/xRTps5wIWo42ZuxSauxX+uud32vTvNTdTsQp4sgPnaR7nmFYzj8UACGi0HNDUc2fH89+/V0w8t3NEX9L9GP2x70Xq5e3SNn+p2X1mDhoOZXaij3vvOr1Y8T6LARDQ2JQVdcw/dxbGNjrWd7scaN+1sE0i2rJkFTIHDeeqjNXo0ln3EdEAAY1NqY6yA90ZGNvoeD7Lo1O67K+Jfc6W39r++LWKeOIDZ1vctFrnTb9Lf6/4QOkMnysAAhpfWcURdh2ud7Glv3w3RDx3UkSP77Kvnt3hMvUvKNu+gA76s//DmsLZzE7096b+Tg8ueVWpDJ8vAAIatpoIuwodaWCpR1NODGl0P77835mOLh6pu/v8cPsi2jK70Lwd4XyNyYiunf2IHlryGjvRAAENc/oGFxF2HLPzfMexQY0bys5z5z+oeXRs8ShNKT9Pxdtxx0IryNsS7rA2VqsrPp2ip5a/rWQmxYIABLR7RRIZVUf4klxHCPktPTw+RDznWER/O7Snntnh8m3eibYDmvOg4RJmJ/rc6Xfo7gXPK5FOsiAAAe1OiWw7NyXYgW5vPUOWbjumSEftQjznosNDw7d5nMMq9Mry8hAJ94im4/rN3Cd1z8IX2IkGCGh3iiUzqo+xDu3J7DzfeESRzhldKA8blTn6ALcd4xw+D3PQcJ2aRKOu+fwR/WnZW0Q0QEC7MKCzj3v1MXag20sg21X3jQvq3Gw881X+3I9oM87xfP+rNNjfZ6v+rNXFzwLCdcxO9IUz7macAyCgXRjQZgeac6DbRWnA0m+OKNJpe/jZec4jBweHaVKfc7Yuos0NVfycCQ13RjTjHAAB7TqJFDPQ7cHsPF9zaECX7B8wX+FHHrGy38aGdtPD5Req1Btq3Z/xWYxxwLWaxzkeWPyK4uxEAwS0G0Syj3XVnAPd5vE8eVxIPxkTUAGbknkb0WOCQ/T6gGu1d2DnVvwBS56uhSwcXMvsRP9k1r26+Ys/K5qKsyAAAe3wnQPiuU01j218b4SfnWcHGBHYUZPLz9W+RYO33NBBH8fZwdXMCMcf5j+n3897hp1ogIB2ekBzBnRbYWzDmUYGdtIf+16knQt6baGgLXm6BVgwuJo5J9rMRP/uiz8rnIyyICCgWQKnBjQ70G3BBPM9xwcZ23CoIf5yvTLgah0S3G3zDV3iF8+e4HZmJ/r6OY/r8k/uU10izIKAgIbzrA2zA729iv2WrjmkSGeNLKSdHGxnfy9NLP+RxoZ2bzmgA77sC8+gAOOxZW/oqk8fYCcaBDScp5Yj7LaLCeYrDgzoZwcHOMXMBYb6++nB8gu0R2BACwWdfbDsyhgHYMTSCT2w5BVd/fkf2YkGAQ1nWdtEQG+PGw4v0i8OCdjzz3CHAQU99PwOV7a4E22FCmQVc8t2oNndC5/XBTPuUlWsjsUAAQ1nqGMHepuY3eZz9y7UJfsXsvPs0oi+u88PNx3RXktWF460Azb011Xv6uJZk9iJBgENZ1gbJqC3xfdHFerWo4oU8nNsmVttbpzDYwKaq0mBr5hbfT+94t/66WcPEtEgoJHnD2jchXCbmF3nO44pUtcA8ex2Zif6H/1/quOKR238C2YWukeRfbQdgP+6f/HLjHOAgEZ+M/FsIhqtYzYUTx3ut+ee2XlGs76+7rqjzw90QsleGz9olvi5vTewCYxzgIBGXgubgOYUu1YbP8yviccH2XnGNwws6KXJfc7TmKJd/vuTXkueUk7kAL6ueZzj0ln3al28ngUBAY380hjLKJ5khKM1zt+7UFNODKpHiHjGpvX2ddXf+l+lH3U9VN4vHzLNaRxWFz+LA2zCo8ve0FlTb1FFdB2LAQIa+aMpIXagt6B5bOP3RzHzjC0r8xbrt72/q7O7HZp90DSD0JY8ZcxCAy15fc10nTPtDnaiQUAjnwLazECzA705jG1ga/X0dtGtvc/SiSV72xFt352wK8faAZtibvv9SuVU/eDjP2hp0xoWBAQ0cp+ZgY6zA92is/fyM7aBbRLyFOrxfhfr0u7HqMDyytuziAsKgc14afWHOvmDX2tOw3IWAwQ0clskkX32zykc32Buz330LgW69Wh2nrHtCq0CXd1jvC4uPUq+At/6UQ4P709AS2bWLdSZU3+nxeHVyoivjoKARo6KJjJKpnmQ+rojBhXoofFBlRYRO9g+3bwh3djrNH2vy0EqKA7IwygH0KJ0JqPptQt0+kc3ay470SCgkasazQgHO9AbOW7XAj0+IaTyEt7l0TbMTvSk8nN0SdnRKuxdIu79DmzehzVzdcoHN2pazXwWAwQ0ck9DzDzjZx3sd3BLGtXXa18wWBZk5xltH9H2OIeJ6D4l6+eEALTI7ECf9fEtmtOwjHEOENDILXVRHpSajSj36okJIe3YjXd1tI/mcY4z+46VvyzEggCbYaLZxLM5J5pxDhDQyCn1MQLaGDPAp7+cXqxhPfnSOtpX8zjHLwafpqLuJSwIsAXTauczzgECGrklknB3QJt7W5hofnh8kJ1ndGhEX9nzBP186HflD3Krb2BLGOcAAY2c4vYRjqE9vHpsQki7Zr9n6hkdqdgT0NW9T9aFw06U38+tvoHNaR7nMKdzzKxdxIKAgEbncvMIx+i+Xj13esj+HugMPsuj2wb8ULfvdaG6FRazIMAWzKpbZN9s5Z2qz1gMENDoPG7cgW4e2zA7z2YHGujsiD6vz1G6dY/zVOwrYkGALVjaVKnvf3yLfV60OTcaIKDR4ZpcOAPdPLZhItpibgM5wO/x6dwBR+u63c8kooEtMJ+1lmQj+rsf3aQ3185gQUBAo+M1xN0V0IxtIJddNWiCHtzrcvUo7MpiAFswv3GlPRP9zIp/sxggoNGx3DLCYTaad+rm0UPjGdtAbju574GaOOLH6lrAOdHAlqyL1+t/Zk7Uy6s/UjLDbXVBQKODNCXc8XqaI+oePSWkPfswtoHcVuDx6bQdDtEtw88looFWRvTZ027X31a9y2KAgEbHaHDBKRy7lHnsm6R8aycfb3DkjfMHHmuPc5QHylgMYAsqYzU6b/qdun/xyywGCGi0LzdcQFgWtDTphJB9m24g35zU9wA9ve/VGhQql8VJ5cBm1SXC+ulnD9oz0Yl0kgUBAY32EXH4+Mb6eA7qiEE+eWgP5CGf5dW3egzX0/tdo6El/VkQoBUR/eNZkxjnAAGN9rOuybk70OUlHj0+IaRTh3OHN+S/0d120WsH3WTPRgPYvKpYnc6fcRfjHCCg0T6cegB914Clu44r0hGDCngjwzH6F/XUlFGX6qwBR3BWNLAFjHOAgEa7ceIZ0Caef39kkSbs7peP91g47f27IKT7sxF9/bAzFfDw1RVgSxFtxjkeX/YmiwECGm2n0WEB3SNoacq4oM7fp5A3Lhwr4PXryl0m6P8OuV07h8pZEGAzzDjHpZ/cq1vnPctigIBG2wjHnPO6mJ3niccHNX43duXgDqNLd9GLB9yg8X0PZDca2IzGZFQ3zH1CDyx+RfF0ggUBAY3tE087Ywe6eWzj1D38KuC0OrjIbiUD9NDo/9XPdz2NxQC2ENFXffaAbp//V+5YCAIa28cJN1FhbANuV1pQbM9Ev/WtW7Rf96EsCNACMxN9/ZzH9L+fTCGiQUBj2+X7bbxDfku3H8PYBmCM7TlCT+3zC1008HiFfAEWBNiEeDqpKYtf0m/nPqX6RBMLAgIa2xLQ+bsDbeL5urEBnTmSsQ2g2cBQH90+4gLdvscF2jHYiwUBWojo333xtG6c+ydFU3EWBAQ0tk4sT4/GNDPPdxxTpKsOYpcN+DpzQeH5A4/Vvw++zf6eCwyBb4qm47pzwd900Yy7iWgQ0Ng64Tw8xs7vlX52cEDfH8XMM7A5Zgf6tj0u0CN7X6G9S3eR1+IhHNiQmYN+Yvlbunb2I6qJN7IgIKDROvE8u4bCxLO5WPDKAwP2jwFsXrEvoNN2OFQvjLlBV+wyQX6Pj0UBvhbRdy98Qb/94kl2okFAo3Xy6RSOQPbz/i8OCdgXDXKHQWDr9A101++Hn6P3D71Lx5fvpwJCGviKudX3XQueZ5wDBDS2zKRzOk/+rSaYLz0goCsODBDPwHbYq9tgPTL6Kvu0jj27DpTP4ks5gME4B9q1Y1gCBz1YpKRIHpzCYYL5eyP8un5skb0LDWD7lPlLdEq/g+yYfmL5m5q08EVVxmpYGPB58ctxjmgqod8NP8cegQLaAnt/DmLvQOd4P5vj6X4yJqDJ40LEM9DGzJF3vxz6Pc06fLLO3vEo9fB3ZVHgemacY/LiF/WDj2+1714IENDYSDyVyelzoM3O8yX7B3TNoQHiGWhHvQOlmjTqYr1y4G903k7HZEO6i6zsN8Ct0pmMnq94V1d8OkWVUb46gzZoGpbAObKPD0rl6BB089jGb45gbAPoCOas6L1Lh9gvE/p9S/cu+odeq/zYPisXcGtEP7TkVfv233eNuEi9C0tZFGwzK5PJZFgGZ6iPZXTGM2G9PC+37udtxjbMzjPxDHQeMws6vXaB/jDvOb25doaq4w0sClzrgO676a9jriOisa0yBLSDVEcy+s5TjXp7ce7cjtBjSZeOCejasQGVBvgSMtDpT7STTZpWM19PLX9bL1S8r7WxOmXEpwG4z7jyMbp9zws0KFTOYoCAdrN1TdmA/nOj/pUjAW3i+aRhfj16SlAhP/EM5Jp3183W/Ytf1jMr/s1oB1zpyN6j9cCoyzQg2IvFAAHtVpWNaZ30p7A+XNH5Ae3N9vI5owt12zFFxDOQ648d0Rrdu+hFPbvyHc1pWMaCwFXM+ekvjrmBiAYB7VYVDWmNe6JR01Z1/v28z9jTrzuODapniHgG8kEqk9aSpkq9t262Ji36u+bUL7PHPQA3OKznSE0c+WMNKxnAYoCAJqA7x5gBPv319GL1LiaegXxkTin4d9WnenL523p6xb9YELgmov84+gp2okFAu82S2rSOfrRB86o67yy7cUMLNOXEEPEMOMTCcIUeX/amXl79kabWfMGCwNEY5wABTUB3uGOHFOie44MaWMr9eQAnMeMda2O1+s+6z/Tcinf0fvVsrY7W2EfjAU7DOAcIaAK645619/bq72cWa0A34hlwMhPNs+uX2TdlMSMeM+sWsihwnEN67KH797pMQ4p3YDFAQDvdvKqUxj7caM9Cd+iz9Z19enh8iHgGXBjT8xpW6qGlr+rNNTM0u2GZEukkCwNHMOdDv3zgb4hoENAEdPvEsxnbGNbTyxsAcCkz4rE6Wq3P6pfoT8vf0sc187UsskbhZJTFQV7br3SoJo+6RCO7DZIlru0BAU1AtwHGNgBsyopIlabVzrfnpV9fM12VsRoWBXlrZNdBmjTyYh1QthuLAQLaiWavSelbDzSoJtr+b1LGNgC0RjQV19tVs/TCqvf17rrP9UXjCsY8kHdKC0r0jwNu0JiyYexEg4B2ms8qUzrw/gY1xNv3TXrwTj5NHsfYBoDWM9G8Olaj+Y0r7QsQ31wzU8sja1UVr1OaT0PIA4OL+2nyyEs0tucIeS02jwhoApqA3go7d/fo5bOKNaQH8Qxg25mbtcyuX6r3q+fq+Yp3NbV6nqLpOAuDnDYw2Ef3jfqJjuw9msUgoAlop/hkdUoHZAO6KdE+b9L9dvDp0VOCxDOANteYjOrl1R/qX1WfaGbtIn1av8j+OSDXFPsC+st+1+nwXqPYiSag4QTTV6W0z331ao+36Khyrx4aH9LIcuIZQPsxJ3qsi9dradMafVA9R+9UfaYZdQtUFau3d60z4lMWOl//op6aOPJiHddnXyKagEa+m2YCenJ9m/+9pUWWXv5+sb0DDQAdbXnTWs1pWKaPa+bprbUz9VHNF2pIRlgYdHpEP7jX5YxzENAgoL9pcJlHj5wc0gEDiGcAucGc7DGrbpF9MeKn9Ys1u365FoUrmKFGh2Ocg4CGA3y4IqkxUxra7O8zFwxOOTGkwwb6ZHFqD4Ac1JSKqSpWp4potX1bcTPyYeK6Ol6vdfEGxdIJFgntinEOAhp57p8LEjr60ca2eVbtt/S3M4rt856JZwD5pD7RpPnhlfaReR9Vf2GH9dSaL7goEe2mX1EPTRzxY53U9wAWg4CGWwO6f1ePHjgpqCMHF7CoABxjeu0CTauZb99y3MxUm7GPlZF1jH6gTfg9Pj21zy80ru8Y+SwuuHd6QDPYim/E8z3HB3X4IOIZgLPs1W2w/WJu3FKXDKsm3mif+DGzdqE+qV+sT+sWaXW0RrWJcPalkfEPbJV4OqmLZt6TfUKW0IR+B2WDms+jTsYOtINs7w60Gdt47vSQHc9exjYAuNDqaLWWNFXaLwsbK+zxD3Mu9YLwShYHrdLdX6JfDztLFw86kcVwLnagnWRd07Y/F2JsAwCkPoHu9sv+3Ydt9PNmfnpe4wp9Xr8k+7JMC8OrVBFdpyXhNaqM1SiZSbF4sFXHG3TJrHuVymR0wc7HKuDxsygOREBD/bowtgEAm2OOK2seATEiqZh9FrUZ96jJBpO58cvcxuWa27BcCxpX2j8fzv66Ce/GVMQeG4G7/HL2I9mITuminU9QkZeIJqDhKH6vNDEbz8ftytgGALRWkbfQfulV2M3+7/26D/3q18xutJmlNjvTldnvV0SqtDBcoWXZyDa72OZ0EG4E43zmbXz9nMeUyCT1syGnsSAENJyiV8jSvSeEdOIwdp4BoM0+sVpe7VDUw35pidm1XtxUqQWNq+zd68VNFVoVWWdfvLg6VmufbW1+bG5tjvxlvgLx888e1v6lw3RIzz1ZEAIauSi9FV8h7BG0dOexQY0jngGgw5X6S+yX5pGQTPZbOBmzj9Qzox/mBjHmPOvlkbX2hY0mss0O9rLsfzdmf93cjbEpFVU4+/vMj+PphBgSyV2PLX9DY8p2s4+6AwGNHBNLtv7h88YjijRhuF8+bpoEAJ3Oyn4zc9bFCqiHv8tXP7+fhm70+0xoNyQiqkk0qipeZ+9Umx+bI/nMqIiJbTM6srxprSpi1fYxfcxfd75FjRVqSDapbIO3LQho5IhhvbwKFlhqSrT8YFlSaOnGw4t0wT6FLBgA5GFodykI2i87Bntt8febeey12cg2L2Y324T2qmiVfVLE2myAm++bkjHVJ8Oqz4a5+d7sfpufR9sJZZ8csftMQCNHDSnzauzOPr30RaLFeP7VYUU6n3gGAHd8kre8Kg90t1/27Dpwo18zO9PmNBFzkZu5aUwslbC/T6STiqTjdmybkK5JNHw5kx22Q7zOfJ+N73Aqav/eRDplj5CYv8f82P65bLgnzc9nEuyAZ+1buqtC3iLeIQlo5KKyoKWbv12kOWtTWlT9zQtPfnloQBftW6gAb3UAcD2PZdk7o9vKhLLZrTZz2I3JJnsne/1/R7NhHrfjPJyMqj77aya6zQiD+fXmH9fGm+zfY37dfG8umnTi6SSDQuW6YOfj7PWGc3AnQgeqbMxoytSYpq5MKpLIaGCpV2eO8OuQgZQzACC3mciOZGPcnt9Wxg5sc2GlifF4JmnPgJvfY15i2VBvzAa72QE38Z2xd9Xj9ukl5iJLczOTdPabCXT719Jxe2fc2DDWzROAZubPN98Yx/w95r8z23CJZtBbqLE9R+p3w8/W8C478YZ1lgwB7VDmRI5wPKNEWirxWyrwsiYAAIdXTfYlmU7awRvPhrL53mSOGS+R/WspO6iNWDr51Z8zAd4sYf+e9Wlk/mwyk/wqn82fNzvoGzKhv/Hn34x9mspuJQM0pGQHLhwkoAEAAAACmkPMAAAAgK1AQAMAAAAENAAAAEBAAwAAAAQ0AAAAQEADAAAABDQAAAAAAhoAAAAgoAEAAAACGgAAACCgAQAAAAIaAAAAIKABAAAAENAAAAAAAQ0AAAAQ0AAAAAABDQAAABDQAAAAAAENAAAAgIAGAAAACGgAAACAgAYAAAAIaAAAAICABgAAAAhoAAAAAAQ0AAAAQEADAAAABDQAAABAQAMAAAAENAAAAEBAAwAAACCgAQAAAAIaAAAAIKABAAAAAhoAAAAgoAEAAAACGgAAAAABDQAAABDQAAAAAAENAAAAENAAAAAAAQ0AAAAQ0AAAAAAIaAAAAICABgAAAAhoAAAAgIAGAAAACGgAAACAgAYAAABAQAMAAAAENAAAAEBAAwAAAAQ0AAAAQEADAAAABDQAAAAAAhoAAAAgoAEAAAACGgAAACCgAQAAAAIaAAAAIKABAAAAENAAAAAAAQ0AAAAQ0AAAAAABDQAAABDQAAAAAAENAAAAgIAGAAAACGgAAACAgAYAAAAIaAAAAICABgAAAAhoAAAAAAQ0AAAAQEADAAAABDQAAABAQAMAAAAENAAAAEBAAwAAACCgAQAAAAIaAAAAIKABAAAAAhoAAAAgoAEAAAACGgAAAAABDQAAABDQAAAAAAENAAAAENAAAAAAAQ0AAAAQ0AAAAAAIaAAAAICABgAAAAhoAAAAgIAGAAAACGgAAACAgAYAAABAQAMAAAAENAAAAEBAAwAAAAQ0AAAAQEADAAAABDQAAAAAAhoAAAAgoAEAAAACGgAAACCgAQAAAAIaAAAAIKABAAAAENAAAAAAAQ0AAAAQ0AAAAAABDQAAAOQTX/YlwzIAAAAArfP/hOF19ceFnkQAAAAASUVORK5CYII=;" vertex="1" parent="1">
          <mxGeometry x="833" y="218" width="104" height="104" as="geometry" />
        </mxCell>
        <mxCell id="VO9SBi8s1unNAO6Z6G-t-11" value="" style="shape=image;verticalLabelPosition=bottom;labelBackgroundColor=default;verticalAlign=top;aspect=fixed;imageAspect=0;image=data:image/png,iVBORw0KGgoAAAANSUhEUgAAAaUAAAB4CAMAAABl2x3ZAAAAzFBMVEX///8AAAD/8QDV1dX39/f6+vpVVVU0NDR+fn7s7OweHh5JSUnR0dGPj4+vr696enr/9gCdnZ0lJSUJCQn/9QA/Pz9xagDj4+PHx8dfX186OjrNzc0bGxtOTk67sQDd3d27u7ugmABoaGhxcXGlpaWIiIhlZWUvLy+UlJS/v7/y5QDl2QAUFBQjIyMjIQBHQwDf0wDGuwCRiQAXFQA0MQD56wB5cgDNwgBdWABsZgCelQAJCQAfHgCDfADWygCsowA5NgBTTgD//wAuKwAMFZnUAAANRUlEQVR4nO2deWPaOBPGY7BJDAkkAcqRAxJCyEHapsd223fbbrvf/zu9BFujkTW6wEeS6vmrDcJI+ukYjUbyzo7X61UUx5N6fRCHUdU58SIU70/3GouH02U3WKm7PH3YHc2n+3HV+fJiGtx2+qcBqYfWfDioOn9eO5ODsyVNiKnZOPKgqlR8dKYnxNS48mNfRdqf2SFKetTepOr8/okajhwYrXVZrzrPf5qmfVdGT2oMq873n6TJRoyeNPLzU0mKXOYjSQdVZ//PUHsbRiud+mGvcIVbdaRE86oL8dpV33hGwmr4ZW6RanfzgBQED37UK04H+TB60lXVZXm1ymFK4vKTUzFq5QkpCC6rLs9rVJiL3YDVqLpIr0/ROG9IHlP+ynm4S+QHvXx1WQQkb0LkqxxNcFHeIM9P27ruNPLL27xUz8njQGnhnUX5KH8bHGtUdfFeiTpFQgqCm6rL9yo0LRZSEOxXXcJXoKhoSMGi6iK+AuXqYqXlx7xtVS8eUhD4kJUttVsGJW/nbacC17NYJ1WX80UrWpRD6cwtWzdnjaxGl/PbeqmnptqzzlpmX2R0KWW3MZrdDFUx2ZGcvHG9d3QSqnJSDiRXR5FqBTfulBjkzDLRNaZUtvWzG3JGDhXJF3PSUWO5qfTx7af/3v7PKqlKbltNmnX2qLTBcy/9xaYxZaSe3Lt7RMWrKK2SHxGPHxpr9593389/3N/f3d2///Hz67+bo3I6kaH1hlyWZDHmQmmlG2mcVlNadT+ZqulYxbvzu8PDHtPqn+8/vDV8RaU9lwrS+6yW5XSnvCjJsfM6SnJ7Hugr9teXFZeaoN5h7edm/anr0gNMnsW2w7M2Vm6Ugmam4vWUgkxvmuvSfjzPIkp0WPtuqENaLjVr9P+WcWQgP0pZ48lAaSwm1tkOX1c4FPr9/qMpV4Rc7Aezl74Ep1OelESPs4FSIJgQ+5qEF3RHSse9z38bsyXLYTsQjOAx6DjztOIHvQ0oNXl+s4f68YAPlI55+qYq8V6g1LmyIyWYam+cIbmEQDBKrZ2IK75q4McVvnLagNIBym+4f4CXUXhjACi1Ufr46AESowE9Um/RGiBthsnBmccpiRqiI/P9oh0RNKX5uM80ZrYmoiQovEI9BLkwECWsGEo35l6IibI+L0yQNhr0HuytPBUlIdgJjd5hKhmc+pOnahlM1hqQrhmSEg62gjpWUcIVj0d8BaWdeCGnVXqH3pghrTDdO6+c7Jc5ako7V/C4JRQlbvRbTxrLNkUr/USaxqLJwQgm/f6sLTchitIRKg4fwdWU8JKUm08qShwJ/+BaUZmfPmsMB67DL66U7EMoNZRQRcFCOW5m/wJiabOel6Ewx62/m+VEUMINGz1RRwkFDUMrVVKKpaIpd5YebbrSE6a/zGAE2TvGdZT45nKXdaaYGYByO2AxbCKlAdlCM64cmdItSox/SkspBmsPOpOSUsiQQui2alr6agmp1rszgxF0bD0xaSmFMCWzqneldBvQ6gsZlCidoKQdnFJLCf0aa1VKShHr4dfsLypP6w+r8W7dmT7oqUiyNp61lPi4w6xbR0qaoCm8pstSws1aPKagp7QDgyv7WN2XFtnn44kQyborrfRZy0TWLVkIQnpKO7DCTUd6N0rayDbUmzKU1JBMlCC0hBnYSkrgZ4CCKE5ZPFp3pVVngkXTr8dzrgvVWsra+2ag1M480ImSegHypCWfm0RKA+T8uM78iIES70xpV1VSgoTg96MPLH26s4dU6z2yr735fYjUu6MdstbHmQyUoJS7yf9dKEWG2/54HgVKMfJ5jrKLLxMlaFVHmfxnKHHvN3TprGMsrW6HAW+FSfG13uEj5ZBVVLosAyXe5pIhxIXSDc/Ocl6Pn1QXbgGEZowphahNN6Q1sIkS7BDNkv/TlAZ8dJuxv4V0mzL6hgT9/qWCe/hIPNw6yNVECZa2ycTkQCnmuZnxOSiacpcb/CamhFZXLdlSNVGCr7cSwECp0wbNG8g/C2bWgD4Nc+8wLa1YfFNRqh0Sg96xBowgEyWwiadJ1dtT4h4e0fkbcw5skwFRQnvau8RywkiJlec0+bJp54LPe3RM68c7N0rnSkrUamppu2AyUYIekVS1PSUe7ZN1JnHfM1v3M0oPOEj7gdp/MVICezr5tokS/40T8vN3n10g1XrMS0RMZ4eypde13WIyUQLHT1Kj9pTAwJP9IGAF76bzDqO0wGsWOhTLROlW/LqBEtovpSn97QSp1nuvofRTfrxtIJE1pcQis6cEFU54fmFYS3s8tf1GNzMjJWgcyWhq6kstsE9o14ObiVfr3au/B6MhUm6U2IZZ0iXsKbGap2aXjElCUVLk30gJjLzp+r8mStCdFZS+Ok1L1VFirrxkcLCnxIzd7Lr0SdDgU7uCoKQ4L2dPKfG+GClBwYsf8S7kx1c+4jFf+ExKuKq7aap0WKNGPHp/2H7ES7qpmRIrSeHWQ++X9PTqrQc293SkhLIoSrT3xEgJXIdJM7WglC6ZaEv8HzdLvKexxO/lp+dmicMI4mqJb0spmFIpjZTA4ZGx8a7CGEnwgSRRIvmsai+UlAhDPDi2DSgxUYK2mVRaiZTIY41GSmzB1cysaqX9JWT0r7td0R6ib8TDc/MQQdtMxoUyKVGRUCZKcKFGI2mmSkp4WyUZJh4CSo6muOJrvR4FKehb1M1aJkqMSnq0qHhKLV5bxNkVEyUwHlK3hoYSb4BJ2enw408uE5Nq56L2/iv58Lx2LmBaSj0IhVPqh2jrUDZUTZTAeZhS0VGCRcbp+n+KEKLNdgHfXXB9+/COfrR9cLeBEuzDpKUsmtIixBcuyOGaBkohxAGlk5qWEnSmdWvggW2CXsCOOjdk02YNlKRIrygPSssnT0DI9+OktmCgBJuAbE7TUgKf33oJ/XKjU6D62MdASVqsgvM8pcR6BOV72JknEZb9USj+TPJftMDMHhLWU+J82WaJltK+8CsvNtKLr/Sm6V8gclcywKDIGa9Pi1oTsNVKX6TEYoj4Lm8zs1urp8T3ydmPainBDHgiPDqrwqImrTfUtZSg46yni6TUzBKSls0wrKeUYB4nfFVgk6QdLUsp4rvqLjFE3O6A8dhuXkpWwKpDtc87Ajnkm6q8jFCUaSb1IvMBDPOEIw/afJpPKWoSHXAVq1dHCfl4oAlpKS3Fn1WYD0Hwl1U0/91/FmAE2d/5oKaEdr7RqAVnBzNf4HNvNsZKtmT4mbs0n3IEMgoTFzqthhI6ycc/1FEC70O6F6i+J8rKAeF8gGlpfxhQSamOVnloI49Xn7DmDHnAB/sTDzLPmDL7kPY4s1eLovl5ExH2etWUUE9Al3toKPFwZba2Uh+r/WLE1HM/Au1wsFZBaYDdAdjqRpFBKOgExdCB5Y0s2ymuZ+RAY1VNUKJ/R0UpEl6AiTqv2o+Hzv2w3qq5Gc9gQfQ2OafucGCZURpP9kHDI2EibQl2Flqij07WI2EUXyF/Mu93qGmetcM06REOTmTVQ51fol0QQKlTh+zWpwdCL8CNCigd8PQrCd+ASZzeYkr0s6c7/XxX0uln66eJB7n7l5cjwU2JHIhioRejy+sz8aAyNCbyLCBv2ei8v8UZdWEgsdhfanJTQ/fwZ36TQNaSVh2ZS4R3wg1vIeCDLEkp4ki5yWqmJHqVLCihsfDl3sohLXdiXWrRcaSt0lM+kNKnn5HNBcOokdKZuAw2U8IerJd6w02TGDw1F19l60hTp6fqkzFM3AUBq2oTpVnG02GkJK7mjLdF/bz/vb4tqpZeF/XjOdwWNSOPlCuPJZ1l20esfD+OkFR13wM3x1llGihJF12YKGXqynzz2sdfF1/YzWtfvv9rTK9UbjevtVSLY8U5TOKitlAx1IuGtIoSikVIR3EtpZnc8fWUupJ9Xtothm7366opNabq2IkJYRjs0je2DInudJlZ5yrvTuFr6HShrqE0o1qnjlJXOiv/wm4EXTRuDD1y0hFPZbXaqqtQo+G1EJ6zuyc9mmViKX2Zm+OJ4UrfCNodj9r06kNJaXdE3DvxbG/XHdQp2dgf8XDeSO6faV229ftZg+F81FonHR3VCZqQCemTkOcp+R6Z3YmqhSjSa77hb6p+ESqlM/lb37eU2czLQf5NWdvKtGbKQU5rJS9KWt9KLjot9Ur9Vyrlnm1e8i9wzEN6f/LW8uNdLorpCzpyEhlU5eWuIu28pZMDz0sjxf1eeWhaddlekQp7OaB/JWCeOjNX+CaiThl7bSzt2xQ2lqOT1cskbaiKh/RclD8mD6kA5Y3J7SVzXpYKc3W8esOhKGkD9Nzk8IYYL0fltXW7tD5C67WBTnLx6Y1LfK3sH6k4Bw95Rx2X4ZWTth31Tv1+UhmKLA6mqFXG6y+9njRRv4zOIOkNul4FarrRErfvB7uS1Xb2v7a8+V2+olvprWw6Xft+VJEme5ahr/0DHxhZoeKTmcmS6Lb2qGB4r1IVTW47/ewLp1M9tOZD34uejQYn073GogmXvS6bu6P5dN/b3c9R8SQ9aePxeHmt9X8c8/wLOmnVfgAAAABJRU5ErkJggg==;" vertex="1" parent="1">
          <mxGeometry x="809.69" y="558" width="181" height="51.59" as="geometry" />
        </mxCell>
        <mxCell id="VO9SBi8s1unNAO6Z6G-t-12" value="" style="endArrow=none;dashed=1;html=1;strokeWidth=8;rounded=0;fillColor=#dae8fc;strokeColor=#6c8ebf;exitX=1;exitY=0.5;exitDx=0;exitDy=0;" edge="1" parent="1">
          <mxGeometry width="50" height="50" relative="1" as="geometry">
            <mxPoint x="952.19" y="280" as="sourcePoint" />
            <mxPoint x="1000" y="585" as="targetPoint" />
            <Array as="points">
              <mxPoint x="1050" y="280" />
              <mxPoint x="1050" y="438" />
              <mxPoint x="1050" y="585" />
            </Array>
          </mxGeometry>
        </mxCell>
        <mxCell id="VO9SBi8s1unNAO6Z6G-t-14" value="" style="shape=image;verticalLabelPosition=bottom;labelBackgroundColor=default;verticalAlign=top;aspect=fixed;imageAspect=0;image=https://www.opc-router.de/wp-content/uploads/2021/03/mongodb_thumbnail.png;" vertex="1" parent="1">
          <mxGeometry x="1370" y="317.36" width="175.87" height="236.54" as="geometry" />
        </mxCell>
        <mxCell id="VO9SBi8s1unNAO6Z6G-t-15" value="" style="shape=image;verticalLabelPosition=bottom;labelBackgroundColor=default;verticalAlign=top;aspect=fixed;imageAspect=0;image=https://streamlit.io/images/brand/streamlit-logo-secondary-colormark-darktext.png;" vertex="1" parent="1">
          <mxGeometry x="1890" y="310" width="340" height="198.9" as="geometry" />
        </mxCell>
        <mxCell id="VO9SBi8s1unNAO6Z6G-t-17" value="" style="shape=singleArrow;whiteSpace=wrap;html=1;arrowWidth=0.4;arrowSize=0.4;verticalAlign=top;labelBackgroundColor=default;" vertex="1" parent="1">
          <mxGeometry x="460" y="403.83" width="273.5" height="60" as="geometry" />
        </mxCell>
        <mxCell id="VO9SBi8s1unNAO6Z6G-t-22" value="Extract" style="text;html=1;align=center;verticalAlign=middle;resizable=0;points=[];autosize=1;strokeColor=none;fillColor=none;fontSize=59;fontStyle=1;labelBackgroundColor=default;fontColor=#3333FF;" vertex="1" parent="1">
          <mxGeometry x="480" y="328.83" width="210" height="80" as="geometry" />
        </mxCell>
        <mxCell id="VO9SBi8s1unNAO6Z6G-t-23" value="Transform" style="text;html=1;align=center;verticalAlign=middle;resizable=0;points=[];autosize=1;strokeColor=none;fillColor=none;fontSize=63;fontStyle=1;labelBackgroundColor=default;fontColor=#3333FF;" vertex="1" parent="1">
          <mxGeometry x="740" y="135" width="310" height="90" as="geometry" />
        </mxCell>
        <mxCell id="VO9SBi8s1unNAO6Z6G-t-24" value="" style="shape=singleArrow;whiteSpace=wrap;html=1;arrowWidth=0.4;arrowSize=0.4;verticalAlign=top;labelBackgroundColor=default;" vertex="1" parent="1">
          <mxGeometry x="1060" y="390" width="310" height="60" as="geometry" />
        </mxCell>
        <mxCell id="VO9SBi8s1unNAO6Z6G-t-25" value="Load" style="text;html=1;align=center;verticalAlign=middle;resizable=0;points=[];autosize=1;strokeColor=none;fillColor=none;fontSize=63;fontStyle=1;labelBackgroundColor=default;fontColor=#3333FF;" vertex="1" parent="1">
          <mxGeometry x="1150" y="300" width="160" height="90" as="geometry" />
        </mxCell>
        <mxCell id="VO9SBi8s1unNAO6Z6G-t-26" value="" style="shape=singleArrow;whiteSpace=wrap;html=1;arrowWidth=0.4;arrowSize=0.4;verticalAlign=top;labelBackgroundColor=default;" vertex="1" parent="1">
          <mxGeometry x="1540" y="383.57" width="350" height="60" as="geometry" />
        </mxCell>
        <mxCell id="VO9SBi8s1unNAO6Z6G-t-27" value="Reporting" style="text;html=1;align=center;verticalAlign=middle;resizable=0;points=[];autosize=1;strokeColor=none;fillColor=none;fontSize=63;fontStyle=1;labelBackgroundColor=default;fontColor=#3333FF;" vertex="1" parent="1">
          <mxGeometry x="1604" y="288" width="300" height="90" as="geometry" />
        </mxCell>
      </root>
    </mxGraphModel>
  </diagram>
</mxfile>
